<svg width="500" height="500" viewBox="0 0 500 500" fill="none" xmlns="http://www.w3.org/2000/svg">
<g clip-path="url(#clip0_105_181)">
<rect width="500" height="500" fill="#225D38"/>
<path d="M186.843 420.757L230.139 295.946L260.549 208.219L206.049 51L132.344 263.566L159.091 340.677L186.843 420.757Z" fill="#4A9462"/>
<path d="M324.137 391.627L341.798 340.677L364.368 275.583L300.78 92.1744L260.55 208.219L283.826 275.358L324.137 391.627Z" fill="#4A9462"/>
<path d="M283.826 275.358L260.551 208.219L230.141 295.945L186.845 420.757L214.217 499.689H286.675L324.138 391.627L283.826 275.358Z" fill="#164628"/>
<path d="M452.07 340.677L396.947 181.693L364.366 275.582L371.42 295.945L442.087 499.689H507.194L452.07 340.677Z" fill="#4A9462"/>
<path d="M364.367 275.582L341.797 340.677L324.136 391.627L361.627 499.689H396.947H442.088L371.42 295.945L364.367 275.582Z" fill="#225D38"/>
<path d="M286.673 499.689H300.779H361.626L324.136 391.627L286.673 499.689Z" fill="#164628"/>
<path d="M132.344 263.566L103.968 181.693L48.8179 340.677L-6.30554 499.689H50.4727L128.248 275.358L132.344 263.566Z" fill="#4A9462"/>
<path d="M159.092 340.677L132.344 263.566L128.248 275.358L50.4727 499.689H103.968H159.499L186.843 420.757L159.092 340.677Z" fill="#225D38"/>
<path d="M159.498 499.689H206.049H214.214L186.843 420.757L159.498 499.689Z" fill="#164628"/>
<ellipse cx="179.964" cy="155.043" rx="21.8154" ry="20.1373" fill="white"/>
<circle cx="180.896" cy="156.721" r="10.9077" fill="#2D2A26"/>
<ellipse cx="377.981" cy="259.085" rx="21.8154" ry="20.1373" fill="white"/>
<circle cx="378.913" cy="260.763" r="10.9077" fill="#2D2A26"/>
<ellipse cx="109.484" cy="356.415" rx="21.8154" ry="20.1373" fill="white"/>
<circle cx="110.416" cy="358.093" r="10.9077" fill="#2D2A26"/>
<ellipse rx="21.8154" ry="20.1373" transform="matrix(-1 0 0 1 226.951 155.043)" fill="white"/>
<circle r="10.9077" transform="matrix(-1 0 0 1 226.019 156.721)" fill="#2D2A26"/>
<ellipse rx="21.8154" ry="20.1373" transform="matrix(-1 0 0 1 424.968 259.085)" fill="white"/>
<circle r="10.9077" transform="matrix(-1 0 0 1 424.035 260.763)" fill="#2D2A26"/>
<ellipse rx="21.8154" ry="20.1373" transform="matrix(-1 0 0 1 156.471 356.415)" fill="white"/>
<circle r="10.9077" transform="matrix(-1 0 0 1 155.538 358.093)" fill="#2D2A26"/>
</g>
<defs>
<clipPath id="clip0_105_181">
<rect width="500" height="500" fill="white"/>
</clipPath>
</defs>
</svg>
