<?xml version="1.0" encoding="UTF-8" standalone="no"?>
<svg
   xmlns:dc="http://purl.org/dc/elements/1.1/"
   xmlns:cc="http://creativecommons.org/ns#"
   xmlns:rdf="http://www.w3.org/1999/02/22-rdf-syntax-ns#"
   xmlns:svg="http://www.w3.org/2000/svg"
   xmlns="http://www.w3.org/2000/svg"
   xmlns:sodipodi="http://sodipodi.sourceforge.net/DTD/sodipodi-0.dtd"
   xmlns:inkscape="http://www.inkscape.org/namespaces/inkscape"
   id="svg2"
   xml:space="preserve"
   version="1.1"
   viewBox="0 0 1280 640"
   inkscape:version="1.0.1 (3bc2e813f5, 2020-09-07)"
   sodipodi:docname="bosk-trees-wide.svg"
   width="1280"
   height="640"><defs
   id="defs991">
			
		
				
				
				
				
				
				
				
				
				
				
				
				
				
				
				
				
				
				
				
				
				
			<pattern
   id="EMFhbasepattern"
   patternUnits="userSpaceOnUse"
   width="6"
   height="6"
   x="0"
   y="0" /><filter
   inkscape:label="Opacity"
   style="color-interpolation-filters:sRGB"
   id="filter867"><feColorMatrix
     values="1 0 0 0 0 0 1 0 0 0 0 0 1 0 0 0 0 0 5 -1 "
     result="colormatrix"
     id="feColorMatrix863" /><feComposite
     in2="colormatrix"
     operator="arithmetic"
     k2="0.655689"
     result="composite"
     id="feComposite865"
     k1="0"
     k3="0"
     k4="0" /></filter></defs><sodipodi:namedview
   pagecolor="#ffffff"
   bordercolor="#666666"
   borderopacity="1"
   objecttolerance="10"
   gridtolerance="10"
   guidetolerance="10"
   inkscape:pageopacity="0"
   inkscape:pageshadow="2"
   inkscape:window-width="1920"
   inkscape:window-height="1001"
   id="namedview989"
   showgrid="false"
   inkscape:zoom="1.0375"
   inkscape:cx="640"
   inkscape:cy="320"
   inkscape:window-x="-9"
   inkscape:window-y="-9"
   inkscape:window-maximized="1"
   inkscape:current-layer="svg2"
   inkscape:document-rotation="0" />
		
	<metadata
   id="metadata986"><rdf:RDF><cc:Work><dc:format>image/svg+xml</dc:format><dc:type
         rdf:resource="http://purl.org/dc/dcmitype/StillImage" /><cc:license
         rdf:resource="http://creativecommons.org/publicdomain/zero/1.0/" /><dc:publisher><cc:Agent
           rdf:about="http://openclipart.org/"><dc:title>Openclipart</dc:title></cc:Agent></dc:publisher><dc:title></dc:title><dc:date>2010-04-09T16:57:40</dc:date><dc:description>Small trees or bushes.</dc:description><dc:source>https://openclipart.org/detail/44023/small-trees-/-bushes-by-gerald_g</dc:source><dc:creator><cc:Agent><dc:title>Gerald_G</dc:title></cc:Agent></dc:creator><dc:subject><rdf:Bag><rdf:li>bush</rdf:li><rdf:li>nature</rdf:li><rdf:li>tree</rdf:li></rdf:Bag></dc:subject></cc:Work><cc:License
       rdf:about="http://creativecommons.org/publicdomain/zero/1.0/"><cc:permits
         rdf:resource="http://creativecommons.org/ns#Reproduction" /><cc:permits
         rdf:resource="http://creativecommons.org/ns#Distribution" /><cc:permits
         rdf:resource="http://creativecommons.org/ns#DerivativeWorks" /></cc:License></rdf:RDF></metadata><g
   id="g1598"
   transform="matrix(2.2616048,0,0,2.2616048,342.0303,-60.758117)"><path
     id="path9"
     style="fill:#2a7f00;fill-opacity:1;fill-rule:evenodd;stroke-width:1.41392"
     d="m 51.676888,206.75379 c 3.07353,-0.36525 5.351391,-0.72796 7.686197,-1.27393 2.10702,-0.54598 3.986255,-1.13746 5.409918,-1.77443 l 4.785088,4.0948 6.661161,-7.41739 c 2.9628,0.091 4.781924,0.68373 6.093276,1.77441 1.254405,1.09322 0.626411,3.73208 0.969672,4.59654 0.169258,0.72795 0.169258,0.72795 0,0 2.276279,0 4.100149,-0.27426 5.694651,-1.00221 1.535974,-0.7722 2.447118,-1.81866 3.189004,-3.32008 l 3.189011,5.09449 c 2.336385,-1.9109 3.929296,-3.59433 4.781914,-4.86826 0.85578,-1.36494 0.96968,-2.32038 0.34327,-3.04835 1.02503,1.22971 3.24753,2.27615 6.03632,3.32259 2.84575,0.99969 7.23221,2.59212 11.1631,2.81834 3.87078,0.0467 7.91556,-1.22717 11.50161,-2.04614 3.35827,-0.91122 6.14865,-1.68341 8.59893,-2.82085 0.11388,1.04644 0.45715,2.0019 1.2544,3.04834 0.68335,0.91122 1.64987,1.9109 2.90427,2.82087 l 2.84575,-3.32261 c 0.57104,1.09322 1.42366,2.0019 2.56418,2.54788 1.02186,0.50048 2.561,0.81896 4.1555,0.77473 -0.68335,-1.22971 -0.51252,-2.18517 0.28473,-3.04836 0.79726,-0.81895 2.39176,-1.50143 4.7851,-2.04866 l 4.15551,6.14346 4.78193,-4.59654 c 0.51252,0.63698 1.59767,1.22971 3.47531,1.77442 1.93461,0.54597 4.10015,1.04645 7.34769,1.50143 -4.90057,1.81864 -10.47975,3.0951 -17.19943,3.82307 -6.88894,0.63696 -16.34366,0.22749 -22.66472,0.54596 -6.09327,0.40949 -9.85331,1.54567 -14.35051,1.50143 -4.78193,-0.40948 -9.16681,-3.09257 -14.00726,-2.7741 -5.12519,0.36272 -10.250371,4.685 -15.601763,5.09449 -5.409917,0.0909 -11.047622,-2.41139 -15.604925,-3.09259 -4.668031,-0.59274 -7.744724,0.49921 -11.844872,-0.23002 -4.158678,-0.81642 -8.771344,-2.40884 -13.384012,-4.59273 z" /><path
     id="path15"
     style="fill:#9c6113;fill-opacity:1;fill-rule:evenodd;stroke-width:1.41392"
     d="m 108.10138,205.70481 c 0.96652,-4.45751 1.5945,-8.05436 1.25125,-11.46543 -0.28473,-3.32259 0,-4.13902 -2.90428,-8.41707 -3.015,-4.45751 -8.084813,-10.28375 -15.20313,-17.83384 l 25.28426,-7.37062 c 2.44711,4.64075 4.84203,9.23476 7.17366,13.78579 2.27944,4.54977 5.46845,8.27932 6.7197,13.46732 1.14051,5.13872 0.79725,10.73495 -0.39864,17.15012 -5.69465,3.23161 -10.24878,4.91502 -13.89336,5.05025 -3.81541,0.091 -6.20559,-1.36494 -8.02946,-4.36652 z" /><path
     style="fill:#6aa00f;fill-opacity:1;fill-rule:evenodd;stroke-width:1.41392"
     d="m 71.546253,37.181193 c -1.103258,3.677168 -3.374181,4.719985 -1.550868,14.413196 L 68.13231,51.021562 c -2.706123,-0.832033 -5.119524,-0.846271 -7.09669,-0.950334 -1.878081,0.172563 -3.054199,0.904381 -3.49737,2.27093 -0.911145,2.593371 0.858247,7.189575 5.301657,13.968734 -7.744726,0.454978 -12.818912,1.363327 -15.438452,2.910249 -2.561011,1.409161 -1.763933,3.775723 -0.454163,5.869872 1.025036,2.137128 3.41921,4.411303 6.951475,6.822695 -7.68936,0.04671 -12.302106,1.502134 -13.838081,4.551741 -1.539137,2.910587 -0.114371,7.417176 4.498379,13.331878 -5.296025,-0.271719 -8.428794,0.364893 -9.395304,1.910543 -0.969672,1.54819 1.364787,3.82119 3.244022,7.18801 1.766923,3.27583 3.928645,7.32616 6.948391,12.33217 -8.029457,-0.13781 -13.323853,0.40939 -15.886446,1.63655 -2.61954,1.3207 -2.050153,2.91119 0.398546,5.82051 2.393335,2.82087 7.059865,6.23581 14.233542,10.73759 -4.041619,4.27802 -5.863291,7.41755 -5.694033,9.41945 0.172422,1.86666 2.56351,2.13685 6.948391,2.59182 4.44341,0.45625 10.877748,0.7278 19.535199,0.63932 -4.383299,5.95893 -6.209573,9.91852 -6.095681,12.37414 0.169258,2.18515 2.447782,2.09273 7.288235,1.63901 4.781926,-0.45623 11.676359,-1.86618 21.126316,-4.23331 -4.383298,6.68943 -5.863338,11.28563 -4.439675,13.96872 1.30977,2.59466 8.483494,2.3694 12.982274,1.95993 4.440238,-0.50301 9.051478,-2.18702 13.834998,-4.87264 -0.20004,0.18184 -0.39163,0.33474 -0.59012,0.51096 1.0257,-0.64254 2.06929,-1.3169 3.15135,-2.06112 3.47215,3.77631 7.11764,6.27739 10.70528,7.68908 3.64615,1.27394 7.40363,1.18269 11.0482,0.58995 3.52752,-0.63696 8.82644,-2.00167 9.96379,-4.27527 0.91115,-2.50238 -0.22663,-5.87259 -3.87121,-10.28588 3.92931,0.72797 7.40372,1.45592 10.64968,2.0019 3.13047,0.59272 5.63548,1.54861 8.19964,1.45635 2.67492,-0.18325 6.03665,-0.22715 6.77537,-2.59428 0.39864,-2.50112 -0.73913,-6.36818 -3.87119,-11.96439 7.28758,0.36272 12.98188,0.18124 17.08519,-0.54799 4.10015,-0.72543 6.66398,-1.68111 7.46126,-3.72977 0.68334,-2.22939 -0.56857,-5.14152 -3.53137,-9.09855 5.98096,-4.0948 10.02254,-7.50785 12.12957,-10.23896 2.05165,-2.7741 2.44996,-4.68474 0.34294,-6.27716 -2.22091,-1.63918 -6.66489,-2.86639 -13.55384,-3.68534 3.13206,-4.82276 4.95523,-8.69102 6.09258,-11.96686 1.08515,-3.32006 1.08515,-6.14116 0,-7.41509 -1.25125,-1.320706 -3.7568,-1.776367 -7.51687,-0.8664 3.36143,-3.823082 4.95589,-6.96133 5.01126,-9.419463 -0.0553,-2.502375 -2.67486,-4.184844 -5.01126,-5.410758 -2.39175,-1.273934 -5.74998,-2.095074 -9.62393,-2.278337 4.6712,-2.683096 7.0041,-5.138808 7.46126,-7.3682 0.16925,-2.36462 -2.10646,-4.141434 -5.2955,-6.00811 -3.13201,-1.818645 -7.46087,-3.275343 -13.21089,-4.549278 3.58763,-3.503325 5.80919,-6.506643 6.43244,-8.827025 0.57106,-2.365881 0.96969,-3.638819 -2.50562,-5.413217 -3.643,-1.865408 -9.67983,-3.913815 -18.56508,-5.961212 2.39492,-2.820864 3.70528,-5.321202 3.92989,-7.141109 0.22937,-1.910906 -0.055,-3.686284 -2.84547,-4.277755 -3.0767,-0.682465 -7.8598,-0.590462 -14.97811,0.273994 1.76376,-4.094793 0.73914,-6.689152 -2.85164,-7.963086 -3.7569,-1.319434 -9.90897,-1.000004 -18.90493,0.592417 1.65303,-3.867307 2.45057,-7.097604 2.16267,-9.690974 -0.3401,-2.684366 -1.81844,-5.505165 -3.58695,-6.00564 -1.87924,-0.636967 -5.3514,1.546389 -7.11831,2.865823 -1.7084,1.228439 -2.845172,3.185354 -3.188423,4.823271 -0.512515,1.546923 -0.512515,3.002355 0,4.549279 -6.37643,-0.636969 -10.590029,-0.501995 -12.871054,0.589948 -2.217749,1.000951 -1.419928,3.366831 -0.682787,5.687216 0.512518,2.274885 1.819788,4.777241 3.926809,7.689095 -3.530683,-1.046448 -6.54763,-1.45496 -9.277899,-1.409464 -2.848907,0.04549 -5.011293,0.546014 -7.118313,1.683458 z"
     id="path1059"
     sodipodi:nodetypes="ccscccccccccccccccccccccccccccccccccccccccccccccccccccccccccccccccccc" /><path
     id="path19"
     style="fill-rule:evenodd;stroke:#000000;stroke-width:0.0509012;stroke-miterlimit:10"
     d="m 109.58833,172.90854 c -6.6058,6.0057 -12.358981,8.91881 -17.879628,9.41929 -5.58234,0.27172 -12.871494,-4.50428 -14.635252,-7.14314 -1.82229,-2.59463 -0.398627,-5.68721 4.041619,-8.7798 -11.73098,2.9106 -19.247919,3.27583 -22.778602,1.27395 -3.587631,-2.18517 -2.959638,-6.50618 1.65303,-13.65059 -11.960349,0.54597 -19.477288,-0.31849 -23.177229,-2.59464 -3.58763,-2.27362 -3.132058,-5.95893 1.594503,-11.05341 -10.364264,-7.50838 -15.430923,-12.78611 -15.430923,-16.56242 0,-3.63856 5.068239,-5.59623 15.430923,-5.50397 -5.579176,-8.60034 -8.143351,-14.60602 -7.687779,-18.19909 0.455572,-3.685306 3.756888,-4.594008 10.13806,-3.275831 -4.327934,-5.68721 -5.808544,-9.965259 -4.443409,-12.64837 1.423663,-2.774095 5.468446,-4.139029 12.58676,-3.912802 -5.867073,-5.096999 -8.715979,-8.826553 -8.541977,-11.374428 0.169258,-2.547871 5.922437,-3.321333 9.339227,-3.912804 3.189005,-0.727963 6.661161,-0.77346 10.191844,-0.318483 -5.409918,-6.142192 -7.516939,-10.418977 -6.093276,-12.648366 1.558062,-3.092098 6.108783,-2.883186 14.236627,-1.000949 -6.247679,-1.475882 -9.950335,-0.46951 -10.593633,1.319434 -0.911144,2.593369 0.855779,7.188639 5.299189,13.967798 -7.744725,0.454977 -12.816128,1.364932 -15.435667,2.911855 -2.561012,1.40916 -1.76376,3.776308 -0.45399,5.870472 1.025036,2.137128 3.416791,4.410749 6.949056,6.822125 -7.689361,0.04671 -12.302029,1.502689 -13.838002,4.552296 -1.539138,2.910587 -0.113897,7.414864 4.498774,13.329566 -5.296024,-0.27172 -8.428082,0.365247 -9.394592,1.910917 -0.969673,1.54818 1.365135,3.82306 3.24437,7.1899 1.766923,3.27583 3.929308,7.32386 6.949054,12.32988 -8.029457,-0.13782 -13.325482,0.40947 -15.888075,1.63665 -2.619539,1.32069 -2.050073,2.91312 0.398625,5.82244 2.393335,2.82087 7.061368,6.23572 14.235045,10.73747 -4.041619,4.27805 -5.863907,7.41739 -5.694649,9.41929 0.17242,1.86666 2.564173,2.13713 6.949054,2.5921 4.44341,0.45624 10.875202,0.72796 19.532653,0.63949 -4.383299,5.95895 -6.207169,9.91851 -6.093276,12.37413 0.169258,2.18514 2.447118,2.09288 7.287571,1.63918 4.781924,-0.45625 11.675615,-1.86668 21.125572,-4.23382 -4.383299,6.68942 -5.863909,11.28596 -4.440246,13.96906 1.30977,2.59464 8.483449,2.36714 12.982228,1.95767 4.440241,-0.503 9.052901,-2.18641 13.836421,-4.87205 z"
     sodipodi:nodetypes="ccccccccscccccccccccccccccccccccccccccccc" /><path
     id="path21"
     style="fill-rule:evenodd;stroke:#000000;stroke-width:0.0509012;stroke-miterlimit:10"
     d="m 69.850654,50.729659 c -1.639996,-5.082902 -2.369638,-11.77048 1.528145,-15.3228 2.619538,-1.865406 7.232206,-1.865406 13.838,0 -4.781924,-6.55167 -6.207169,-10.919452 -4.498774,-13.285333 1.594503,-2.320384 6.550431,-2.820857 14.635251,-1.00095 2.505649,-6.597169 5.069824,-10.32798 8.143364,-11.6929124 2.90426,-1.3194338 8.36954,1.2739354 9.79321,3.9128034 1.36829,2.547872 0.74188,6.278685 -1.64987,11.374429 9.85017,-1.819908 16.34364,-2.047396 19.93128,-0.682466 3.41679,1.319434 3.75688,4.187054 0.79725,8.78106 11.04762,-1.546922 17.53952,-1.319434 19.93127,0.682465 2.22092,2.001901 0.34327,5.732712 -6.09326,11.374429 12.24349,1.18294 19.41717,3.457826 21.98133,6.824657 2.39177,3.366831 -0.0585,7.734613 -7.34766,13.285335 11.50161,2.273621 17.93814,4.777266 19.93126,7.507118 1.93777,2.683111 -0.91113,5.596226 -8.54196,8.735569 4.61266,-3.139343 5.63769,-6.052458 2.8489,-8.735569 -2.8489,-2.729852 -9.2807,-5.233497 -19.53265,-7.507118 7.34767,-4.59527 9.4547,-8.371581 6.94905,-11.692914 -2.84891,-3.321333 -10.08111,-5.960201 -22.7786,-8.098593 6.09327,-4.913753 7.97093,-8.053096 6.4919,-9.418028 -1.7084,-1.455927 -7.06295,-0.864457 -16.28828,1.273937 -1.19588,-5.459727 -3.41363,-8.917553 -7.28757,-10.37348 -3.92931,-1.546922 -8.88208,-0.955452 -15.48786,1.59242 1.99311,-9.008548 2.33322,-14.195288 1.25123,-15.9242 -1.14052,-1.592421 -7.00442,3.639816 -8.14334,5.869205 -1.251253,2.138393 -1.195887,4.413278 0.39861,6.824658 -7.686192,-1.091946 -12.697484,-1.319434 -15.033874,-0.318485 -2.391753,0.909955 -0.284732,3.321334 0.797252,5.823708 1.025036,2.411379 2.450281,5.277735 4.900563,8.78106 -7.575468,-2.092896 -12.930021,-2.456878 -16.686909,-1.273937 -5.518257,1.856678 -5.744324,8.321886 -4.777258,12.683932 z"
     sodipodi:nodetypes="cccccccccccccccccccccccccccccccc" /><path
     id="path23"
     style="fill-rule:evenodd;stroke:#000000;stroke-width:0.0509012;stroke-miterlimit:10"
     d="m 114.08077,173.62892 c 6.43496,5.87047 12.24349,8.91882 17.65342,9.32829 5.46845,0.22749 12.41433,-4.41327 14.466,-7.0989 1.82228,-2.68311 0.28472,-5.50396 -3.98627,-8.64457 11.55857,2.77663 18.90466,3.36684 22.49229,1.27394 3.36143,-2.13713 2.9628,-6.45941 -1.64986,-13.4648 11.73097,0.54597 19.3618,-0.36524 22.89407,-2.55039 3.47216,-2.36462 3.015,-5.77569 -1.59766,-10.91819 10.195,-7.37064 15.2063,-12.64837 15.26167,-16.38044 -0.0553,-3.68532 -5.06667,-5.50396 -15.26167,-5.45973 5.40991,-8.55357 8.02946,-14.37601 7.63082,-17.97034 -0.39861,-3.594323 -3.81541,-4.596522 -10.02258,-3.184832 5.0113,-5.917231 6.55044,-10.100503 4.38646,-12.559899 -2.16554,-2.547868 -7.91556,-3.229079 -17.25479,-2.229392 7.6862,0.04671 12.01572,1.548181 13.66558,4.504276 1.48377,2.913115 0,7.235392 -4.44023,13.148847 5.18054,-0.27426 8.20028,0.3627 9.28069,1.9109 0.85579,1.45592 -1.48061,3.82054 -3.24753,7.09637 -1.7084,3.23161 -3.98625,7.23541 -6.83041,12.19339 7.85703,-0.22749 13.15147,0.36272 15.65712,1.59242 2.50564,1.13745 1.93776,3.00412 -0.39863,5.77821 -2.50565,2.7741 -7.11831,6.14093 -14.0642,10.60223 3.92613,4.18454 5.80853,7.27964 5.63612,9.28154 -0.2262,1.95514 -2.50565,2.0019 -6.83041,2.59211 -4.50195,0.45623 -10.70912,0.72797 -19.24793,0.63697 4.21405,5.82496 6.20717,9.82876 5.9778,12.19338 -0.28474,2.2294 -2.61953,2.0019 -7.23221,1.59243 -4.84204,-0.54598 -11.50161,-1.7719 -20.84241,-4.18454 4.2694,6.64267 5.80853,11.19118 4.38329,13.83004 -1.53597,2.54789 -8.36954,2.36462 -12.81296,1.91092 -4.38013,-0.54219 -8.93745,-2.09037 -13.66558,-4.82024 z" /><path
     id="path25"
     style="fill-rule:evenodd;stroke:#000000;stroke-width:0.0509012;stroke-miterlimit:10"
     d="m 102.29601,180.36512 c 2.95964,4.82275 4.72655,9.32829 5.29602,13.33209 0.51252,4.0038 -0.16926,7.50585 -2.04848,10.6907 l 5.29601,2.63887 c 0.51252,-7.14062 0.16927,-12.82783 -1.2544,-17.24237 -1.53598,-4.46005 -3.75689,-7.59813 -7.28915,-9.41929 z" /><path
     id="path27"
     style="fill-rule:evenodd;stroke:#000000;stroke-width:0.0509012;stroke-miterlimit:10"
     d="m 124.67915,179.36669 c 3.01816,4.91249 4.55413,9.18928 5.2375,13.32957 0.39862,3.95956 -0.0553,7.59811 -1.99313,10.73745 l 5.29601,2.59464 c 0.51253,-7.14314 0.17243,-12.83035 -1.25123,-17.24489 -1.53913,-4.45752 -3.76164,-7.59813 -7.28915,-9.41677 z" /><path
     id="path29"
     style="fill-rule:evenodd;stroke:#000000;stroke-width:0.0509012;stroke-miterlimit:10"
     d="m 45.12804,206.03341 c 3.873945,0.18325 7.118313,-0.0467 10.593633,-0.68374 3.244369,-0.63697 6.431792,-1.68341 9.336063,-3.13681 l 5.637703,4.86826 5.409919,-8.46384 c 3.58763,1.82117 6.265698,3.36684 7.801671,4.6433 1.483774,1.31816 2.051657,2.3646 1.483774,3.13681 2.048491,-0.86446 3.358261,-1.72765 4.155513,-2.77409 0.797251,-1.04646 0.855779,-2.13713 0.398626,-3.27585 0.911143,0.36272 1.937762,1.04646 2.848907,2.22939 0.911143,1.22971 1.7084,2.50238 2.619533,4.50428 1.934603,-2.04866 3.302899,-3.95956 3.87078,-5.73399 0.567897,-1.9109 0.343267,-3.41106 -0.453984,-5.00347 2.731852,1.50143 3.756882,3.18484 3.073532,5.55198 -0.62641,2.27363 -3.018165,4.86826 -6.949051,7.96084 l -3.018172,-5.36874 c -1.708395,1.73018 -3.302897,3.00412 -5.011293,3.82055 -1.822288,0.81895 -3.472154,1.04645 -5.409918,0.86699 -0.113897,-2.0019 -0.398625,-3.50459 -1.081983,-4.68754 -0.626412,-1.18293 -1.65303,-2.04613 -2.848908,-2.41138 l -7.344517,8.46385 -5.183715,-5.55199 c -3.815415,1.54819 -7.287571,2.41139 -10.645832,2.59464 -3.359844,0.22496 -6.378009,-0.45878 -9.282281,-1.54945 z" /><path
     id="path31"
     style="fill-rule:evenodd;stroke:#000000;stroke-width:0.0509012;stroke-miterlimit:10"
     d="m 179.06307,206.12188 c -2.73186,0.1352 -5.57918,-0.0909 -7.91557,-0.50047 -2.39175,-0.50048 -4.8974,-1.27395 -6.88894,-2.3204 l -4.21405,3.59433 -3.98625,-6.27995 c -2.73502,1.32069 -4.6712,2.41138 -5.80855,3.45782 -1.2544,0.95546 -1.48377,1.73018 -1.14052,2.32039 -1.4806,-0.63697 -2.50563,-1.31818 -3.07353,-2.04614 -0.57104,-0.7722 -0.74188,-1.59241 -0.28472,-2.45561 -0.80041,0.18072 -1.42366,0.90869 -2.10703,1.68341 -0.74188,0.72544 -1.30976,2.0019 -1.93775,3.32008 -1.48062,-1.50143 -2.45028,-2.91312 -2.90428,-4.23129 -0.39862,-1.40916 -0.28474,-2.59464 0.3401,-3.73208 -2.0485,1.09321 -2.73185,2.41139 -2.27628,4.14155 0.51251,1.68343 2.16555,3.63856 5.18055,5.87048 l 2.22091,-3.95958 c 1.14052,1.27395 2.45028,2.27617 3.70153,2.82087 1.2544,0.54597 2.67806,0.81895 4.04478,0.63697 0,-1.36494 0.34326,-2.68563 0.79726,-3.45784 0.51251,-0.81895 1.1405,-1.59241 2.10701,-1.81863 l 5.46845,6.32417 3.87078,-4.14155 c 2.79038,1.18547 5.40991,1.77441 7.8602,1.95767 2.56101,0.13396 4.66803,-0.32102 6.9459,-1.1842 z" /><ellipse
     style="fill:#ffffff;stroke-width:0.113386"
     id="ellipse871"
     cx="80.488853"
     cy="86.388351"
     rx="20.152544"
     ry="14.849242" /><ellipse
     style="fill:#ffffff;stroke-width:0.113386"
     id="path869"
     cx="139.53227"
     cy="85.681244"
     rx="20.152544"
     ry="14.849242" /><ellipse
     style="fill:#000000;stroke-width:0.109582"
     id="ellipse875"
     cx="84.832291"
     cy="87.801338"
     rx="7.0915947"
     ry="6.2438626" /><ellipse
     style="fill:#000000;stroke-width:0.109582"
     id="path873"
     cx="135.09235"
     cy="87.447792"
     rx="7.0915947"
     ry="6.2438626" /></g><g
   id="g906"
   transform="matrix(-2.2616048,0,0,2.2616048,1168.326,66.848863)"><path
     id="path878"
     style="fill:#2a7f00;fill-opacity:1;fill-rule:evenodd;stroke-width:1.41392"
     d="m 51.676888,206.75379 c 3.07353,-0.36525 5.351391,-0.72796 7.686197,-1.27393 2.10702,-0.54598 3.986255,-1.13746 5.409918,-1.77443 l 4.785088,4.0948 6.661161,-7.41739 c 2.9628,0.091 4.781924,0.68373 6.093276,1.77441 1.254405,1.09322 0.626411,3.73208 0.969672,4.59654 0.169258,0.72795 0.169258,0.72795 0,0 2.276279,0 4.100149,-0.27426 5.694651,-1.00221 1.535974,-0.7722 2.447118,-1.81866 3.189004,-3.32008 l 3.189011,5.09449 c 2.336385,-1.9109 3.929296,-3.59433 4.781914,-4.86826 0.85578,-1.36494 0.96968,-2.32038 0.34327,-3.04835 1.02503,1.22971 3.24753,2.27615 6.03632,3.32259 2.84575,0.99969 7.23221,2.59212 11.1631,2.81834 3.87078,0.0467 7.91556,-1.22717 11.50161,-2.04614 3.35827,-0.91122 6.14865,-1.68341 8.59893,-2.82085 0.11388,1.04644 0.45715,2.0019 1.2544,3.04834 0.68335,0.91122 1.64987,1.9109 2.90427,2.82087 l 2.84575,-3.32261 c 0.57104,1.09322 1.42366,2.0019 2.56418,2.54788 1.02186,0.50048 2.561,0.81896 4.1555,0.77473 -0.68335,-1.22971 -0.51252,-2.18517 0.28473,-3.04836 0.79726,-0.81895 2.39176,-1.50143 4.7851,-2.04866 l 4.15551,6.14346 4.78193,-4.59654 c 0.51252,0.63698 1.59767,1.22971 3.47531,1.77442 1.93461,0.54597 4.10015,1.04645 7.34769,1.50143 -4.90057,1.81864 -10.47975,3.0951 -17.19943,3.82307 -6.88894,0.63696 -16.34366,0.22749 -22.66472,0.54596 -6.09327,0.40949 -9.85331,1.54567 -14.35051,1.50143 -4.78193,-0.40948 -9.16681,-3.09257 -14.00726,-2.7741 -5.12519,0.36272 -10.250371,4.685 -15.601763,5.09449 -5.409917,0.0909 -11.047622,-2.41139 -15.604925,-3.09259 -4.668031,-0.59274 -7.744724,0.49921 -11.844872,-0.23002 -4.158678,-0.81642 -8.771344,-2.40884 -13.384012,-4.59273 z" /><path
     id="path880"
     style="fill:#9c6113;fill-opacity:1;fill-rule:evenodd;stroke-width:1.41392"
     d="m 108.10138,205.70481 c 0.96652,-4.45751 1.5945,-8.05436 1.25125,-11.46543 -0.28473,-3.32259 0,-4.13902 -2.90428,-8.41707 -3.015,-4.45751 -8.084813,-10.28375 -15.20313,-17.83384 l 25.28426,-7.37062 c 2.44711,4.64075 4.84203,9.23476 7.17366,13.78579 2.27944,4.54977 5.46845,8.27932 6.7197,13.46732 1.14051,5.13872 0.79725,10.73495 -0.39864,17.15012 -5.69465,3.23161 -10.24878,4.91502 -13.89336,5.05025 -3.81541,0.091 -6.20559,-1.36494 -8.02946,-4.36652 z" /><path
     style="fill:#6aa00f;fill-opacity:1;fill-rule:evenodd;stroke-width:1.41392"
     d="m 71.546253,37.181193 c -1.103258,3.677168 -3.374181,4.719985 -1.550868,14.413196 L 68.13231,51.021562 c -2.706123,-0.832033 -5.119524,-0.846271 -7.09669,-0.950334 -1.878081,0.172563 -3.054199,0.904381 -3.49737,2.27093 -0.911145,2.593371 0.858247,7.189575 5.301657,13.968734 -7.744726,0.454978 -12.818912,1.363327 -15.438452,2.910249 -2.561011,1.409161 -1.763933,3.775723 -0.454163,5.869872 1.025036,2.137128 3.41921,4.411303 6.951475,6.822695 -7.68936,0.04671 -12.302106,1.502134 -13.838081,4.551741 -1.539137,2.910587 -0.114371,7.417176 4.498379,13.331878 -5.296025,-0.271719 -8.428794,0.364893 -9.395304,1.910543 -0.969672,1.54819 1.364787,3.82119 3.244022,7.18801 1.766923,3.27583 3.928645,7.32616 6.948391,12.33217 -8.029457,-0.13781 -13.323853,0.40939 -15.886446,1.63655 -2.61954,1.3207 -2.050153,2.91119 0.398546,5.82051 2.393335,2.82087 7.059865,6.23581 14.233542,10.73759 -4.041619,4.27802 -5.863291,7.41755 -5.694033,9.41945 0.172422,1.86666 2.56351,2.13685 6.948391,2.59182 4.44341,0.45625 10.877748,0.7278 19.535199,0.63932 -4.383299,5.95893 -6.209573,9.91852 -6.095681,12.37414 0.169258,2.18515 2.447782,2.09273 7.288235,1.63901 4.781926,-0.45623 11.676359,-1.86618 21.126316,-4.23331 -4.383298,6.68943 -5.863338,11.28563 -4.439675,13.96872 1.30977,2.59466 8.483494,2.3694 12.982274,1.95993 4.440238,-0.50301 9.051478,-2.18702 13.834998,-4.87264 -0.20004,0.18184 -0.39163,0.33474 -0.59012,0.51096 1.0257,-0.64254 2.06929,-1.3169 3.15135,-2.06112 3.47215,3.77631 7.11764,6.27739 10.70528,7.68908 3.64615,1.27394 7.40363,1.18269 11.0482,0.58995 3.52752,-0.63696 8.82644,-2.00167 9.96379,-4.27527 0.91115,-2.50238 -0.22663,-5.87259 -3.87121,-10.28588 3.92931,0.72797 7.40372,1.45592 10.64968,2.0019 3.13047,0.59272 5.63548,1.54861 8.19964,1.45635 2.67492,-0.18325 6.03665,-0.22715 6.77537,-2.59428 0.39864,-2.50112 -0.73913,-6.36818 -3.87119,-11.96439 7.28758,0.36272 12.98188,0.18124 17.08519,-0.54799 4.10015,-0.72543 6.66398,-1.68111 7.46126,-3.72977 0.68334,-2.22939 -0.56857,-5.14152 -3.53137,-9.09855 5.98096,-4.0948 10.02254,-7.50785 12.12957,-10.23896 2.05165,-2.7741 2.44996,-4.68474 0.34294,-6.27716 -2.22091,-1.63918 -6.66489,-2.86639 -13.55384,-3.68534 3.13206,-4.82276 4.95523,-8.69102 6.09258,-11.96686 1.08515,-3.32006 1.08515,-6.14116 0,-7.41509 -1.25125,-1.320706 -3.7568,-1.776367 -7.51687,-0.8664 3.36143,-3.823082 4.95589,-6.96133 5.01126,-9.419463 -0.0553,-2.502375 -2.67486,-4.184844 -5.01126,-5.410758 -2.39175,-1.273934 -5.74998,-2.095074 -9.62393,-2.278337 4.6712,-2.683096 7.0041,-5.138808 7.46126,-7.3682 0.16925,-2.36462 -2.10646,-4.141434 -5.2955,-6.00811 -3.13201,-1.818645 -7.46087,-3.275343 -13.21089,-4.549278 3.58763,-3.503325 5.80919,-6.506643 6.43244,-8.827025 0.57106,-2.365881 0.96969,-3.638819 -2.50562,-5.413217 -3.643,-1.865408 -9.67983,-3.913815 -18.56508,-5.961212 2.39492,-2.820864 3.70528,-5.321202 3.92989,-7.141109 0.22937,-1.910906 -0.055,-3.686284 -2.84547,-4.277755 -3.0767,-0.682465 -7.8598,-0.590462 -14.97811,0.273994 1.76376,-4.094793 0.73914,-6.689152 -2.85164,-7.963086 -3.7569,-1.319434 -9.90897,-1.000004 -18.90493,0.592417 1.65303,-3.867307 2.45057,-7.097604 2.16267,-9.690974 -0.3401,-2.684366 -1.81844,-5.505165 -3.58695,-6.00564 -1.87924,-0.636967 -5.3514,1.546389 -7.11831,2.865823 -1.7084,1.228439 -2.845172,3.185354 -3.188423,4.823271 -0.512515,1.546923 -0.512515,3.002355 0,4.549279 -6.37643,-0.636969 -10.590029,-0.501995 -12.871054,0.589948 -2.217749,1.000951 -1.419928,3.366831 -0.682787,5.687216 0.512518,2.274885 1.819788,4.777241 3.926809,7.689095 -3.530683,-1.046448 -6.54763,-1.45496 -9.277899,-1.409464 -2.848907,0.04549 -5.011293,0.546014 -7.118313,1.683458 z"
     id="path882"
     sodipodi:nodetypes="ccscccccccccccccccccccccccccccccccccccccccccccccccccccccccccccccccccc" /><path
     id="path884"
     style="fill-rule:evenodd;stroke:#000000;stroke-width:0.0509012;stroke-miterlimit:10"
     d="m 109.58833,172.90854 c -6.6058,6.0057 -12.358981,8.91881 -17.879628,9.41929 -5.58234,0.27172 -12.871494,-4.50428 -14.635252,-7.14314 -1.82229,-2.59463 -0.398627,-5.68721 4.041619,-8.7798 -11.73098,2.9106 -19.247919,3.27583 -22.778602,1.27395 -3.587631,-2.18517 -2.959638,-6.50618 1.65303,-13.65059 -11.960349,0.54597 -19.477288,-0.31849 -23.177229,-2.59464 -3.58763,-2.27362 -3.132058,-5.95893 1.594503,-11.05341 -10.364264,-7.50838 -15.430923,-12.78611 -15.430923,-16.56242 0,-3.63856 5.068239,-5.59623 15.430923,-5.50397 -5.579176,-8.60034 -8.143351,-14.60602 -7.687779,-18.19909 0.455572,-3.685306 3.756888,-4.594008 10.13806,-3.275831 -4.327934,-5.68721 -5.808544,-9.965259 -4.443409,-12.64837 1.423663,-2.774095 5.468446,-4.139029 12.58676,-3.912802 -5.867073,-5.096999 -8.715979,-8.826553 -8.541977,-11.374428 0.169258,-2.547871 5.922437,-3.321333 9.339227,-3.912804 3.189005,-0.727963 6.661161,-0.77346 10.191844,-0.318483 -5.409918,-6.142192 -7.516939,-10.418977 -6.093276,-12.648366 1.558062,-3.092098 6.108783,-2.883186 14.236627,-1.000949 -6.247679,-1.475882 -9.950335,-0.46951 -10.593633,1.319434 -0.911144,2.593369 0.855779,7.188639 5.299189,13.967798 -7.744725,0.454977 -12.816128,1.364932 -15.435667,2.911855 -2.561012,1.40916 -1.76376,3.776308 -0.45399,5.870472 1.025036,2.137128 3.416791,4.410749 6.949056,6.822125 -7.689361,0.04671 -12.302029,1.502689 -13.838002,4.552296 -1.539138,2.910587 -0.113897,7.414864 4.498774,13.329566 -5.296024,-0.27172 -8.428082,0.365247 -9.394592,1.910917 -0.969673,1.54818 1.365135,3.82306 3.24437,7.1899 1.766923,3.27583 3.929308,7.32386 6.949054,12.32988 -8.029457,-0.13782 -13.325482,0.40947 -15.888075,1.63665 -2.619539,1.32069 -2.050073,2.91312 0.398625,5.82244 2.393335,2.82087 7.061368,6.23572 14.235045,10.73747 -4.041619,4.27805 -5.863907,7.41739 -5.694649,9.41929 0.17242,1.86666 2.564173,2.13713 6.949054,2.5921 4.44341,0.45624 10.875202,0.72796 19.532653,0.63949 -4.383299,5.95895 -6.207169,9.91851 -6.093276,12.37413 0.169258,2.18514 2.447118,2.09288 7.287571,1.63918 4.781924,-0.45625 11.675615,-1.86668 21.125572,-4.23382 -4.383299,6.68942 -5.863909,11.28596 -4.440246,13.96906 1.30977,2.59464 8.483449,2.36714 12.982228,1.95767 4.440241,-0.503 9.052901,-2.18641 13.836421,-4.87205 z"
     sodipodi:nodetypes="ccccccccscccccccccccccccccccccccccccccccc" /><path
     id="path886"
     style="fill-rule:evenodd;stroke:#000000;stroke-width:0.0509012;stroke-miterlimit:10"
     d="m 69.850654,50.729659 c -1.639996,-5.082902 -2.369638,-11.77048 1.528145,-15.3228 2.619538,-1.865406 7.232206,-1.865406 13.838,0 -4.781924,-6.55167 -6.207169,-10.919452 -4.498774,-13.285333 1.594503,-2.320384 6.550431,-2.820857 14.635251,-1.00095 2.505649,-6.597169 5.069824,-10.32798 8.143364,-11.6929124 2.90426,-1.3194338 8.36954,1.2739354 9.79321,3.9128034 1.36829,2.547872 0.74188,6.278685 -1.64987,11.374429 9.85017,-1.819908 16.34364,-2.047396 19.93128,-0.682466 3.41679,1.319434 3.75688,4.187054 0.79725,8.78106 11.04762,-1.546922 17.53952,-1.319434 19.93127,0.682465 2.22092,2.001901 0.34327,5.732712 -6.09326,11.374429 12.24349,1.18294 19.41717,3.457826 21.98133,6.824657 2.39177,3.366831 -0.0585,7.734613 -7.34766,13.285335 11.50161,2.273621 17.93814,4.777266 19.93126,7.507118 1.93777,2.683111 -0.91113,5.596226 -8.54196,8.735569 4.61266,-3.139343 5.63769,-6.052458 2.8489,-8.735569 -2.8489,-2.729852 -9.2807,-5.233497 -19.53265,-7.507118 7.34767,-4.59527 9.4547,-8.371581 6.94905,-11.692914 -2.84891,-3.321333 -10.08111,-5.960201 -22.7786,-8.098593 6.09327,-4.913753 7.97093,-8.053096 6.4919,-9.418028 -1.7084,-1.455927 -7.06295,-0.864457 -16.28828,1.273937 -1.19588,-5.459727 -3.41363,-8.917553 -7.28757,-10.37348 -3.92931,-1.546922 -8.88208,-0.955452 -15.48786,1.59242 1.99311,-9.008548 2.33322,-14.195288 1.25123,-15.9242 -1.14052,-1.592421 -7.00442,3.639816 -8.14334,5.869205 -1.251253,2.138393 -1.195887,4.413278 0.39861,6.824658 -7.686192,-1.091946 -12.697484,-1.319434 -15.033874,-0.318485 -2.391753,0.909955 -0.284732,3.321334 0.797252,5.823708 1.025036,2.411379 2.450281,5.277735 4.900563,8.78106 -7.575468,-2.092896 -12.930021,-2.456878 -16.686909,-1.273937 -5.518257,1.856678 -5.744324,8.321886 -4.777258,12.683932 z"
     sodipodi:nodetypes="cccccccccccccccccccccccccccccccc" /><path
     id="path888"
     style="fill-rule:evenodd;stroke:#000000;stroke-width:0.0509012;stroke-miterlimit:10"
     d="m 114.08077,173.62892 c 6.43496,5.87047 12.24349,8.91882 17.65342,9.32829 5.46845,0.22749 12.41433,-4.41327 14.466,-7.0989 1.82228,-2.68311 0.28472,-5.50396 -3.98627,-8.64457 11.55857,2.77663 18.90466,3.36684 22.49229,1.27394 3.36143,-2.13713 2.9628,-6.45941 -1.64986,-13.4648 11.73097,0.54597 19.3618,-0.36524 22.89407,-2.55039 3.47216,-2.36462 3.015,-5.77569 -1.59766,-10.91819 10.195,-7.37064 15.2063,-12.64837 15.26167,-16.38044 -0.0553,-3.68532 -5.06667,-5.50396 -15.26167,-5.45973 5.40991,-8.55357 8.02946,-14.37601 7.63082,-17.97034 -0.39861,-3.594323 -3.81541,-4.596522 -10.02258,-3.184832 5.0113,-5.917231 6.55044,-10.100503 4.38646,-12.559899 -2.16554,-2.547868 -7.91556,-3.229079 -17.25479,-2.229392 7.6862,0.04671 12.01572,1.548181 13.66558,4.504276 1.48377,2.913115 0,7.235392 -4.44023,13.148847 5.18054,-0.27426 8.20028,0.3627 9.28069,1.9109 0.85579,1.45592 -1.48061,3.82054 -3.24753,7.09637 -1.7084,3.23161 -3.98625,7.23541 -6.83041,12.19339 7.85703,-0.22749 13.15147,0.36272 15.65712,1.59242 2.50564,1.13745 1.93776,3.00412 -0.39863,5.77821 -2.50565,2.7741 -7.11831,6.14093 -14.0642,10.60223 3.92613,4.18454 5.80853,7.27964 5.63612,9.28154 -0.2262,1.95514 -2.50565,2.0019 -6.83041,2.59211 -4.50195,0.45623 -10.70912,0.72797 -19.24793,0.63697 4.21405,5.82496 6.20717,9.82876 5.9778,12.19338 -0.28474,2.2294 -2.61953,2.0019 -7.23221,1.59243 -4.84204,-0.54598 -11.50161,-1.7719 -20.84241,-4.18454 4.2694,6.64267 5.80853,11.19118 4.38329,13.83004 -1.53597,2.54789 -8.36954,2.36462 -12.81296,1.91092 -4.38013,-0.54219 -8.93745,-2.09037 -13.66558,-4.82024 z" /><path
     id="path890"
     style="fill-rule:evenodd;stroke:#000000;stroke-width:0.0509012;stroke-miterlimit:10"
     d="m 102.29601,180.36512 c 2.95964,4.82275 4.72655,9.32829 5.29602,13.33209 0.51252,4.0038 -0.16926,7.50585 -2.04848,10.6907 l 5.29601,2.63887 c 0.51252,-7.14062 0.16927,-12.82783 -1.2544,-17.24237 -1.53598,-4.46005 -3.75689,-7.59813 -7.28915,-9.41929 z" /><path
     id="path892"
     style="fill-rule:evenodd;stroke:#000000;stroke-width:0.0509012;stroke-miterlimit:10"
     d="m 124.67915,179.36669 c 3.01816,4.91249 4.55413,9.18928 5.2375,13.32957 0.39862,3.95956 -0.0553,7.59811 -1.99313,10.73745 l 5.29601,2.59464 c 0.51253,-7.14314 0.17243,-12.83035 -1.25123,-17.24489 -1.53913,-4.45752 -3.76164,-7.59813 -7.28915,-9.41677 z" /><path
     id="path894"
     style="fill-rule:evenodd;stroke:#000000;stroke-width:0.0509012;stroke-miterlimit:10"
     d="m 45.12804,206.03341 c 3.873945,0.18325 7.118313,-0.0467 10.593633,-0.68374 3.244369,-0.63697 6.431792,-1.68341 9.336063,-3.13681 l 5.637703,4.86826 5.409919,-8.46384 c 3.58763,1.82117 6.265698,3.36684 7.801671,4.6433 1.483774,1.31816 2.051657,2.3646 1.483774,3.13681 2.048491,-0.86446 3.358261,-1.72765 4.155513,-2.77409 0.797251,-1.04646 0.855779,-2.13713 0.398626,-3.27585 0.911143,0.36272 1.937762,1.04646 2.848907,2.22939 0.911143,1.22971 1.7084,2.50238 2.619533,4.50428 1.934603,-2.04866 3.302899,-3.95956 3.87078,-5.73399 0.567897,-1.9109 0.343267,-3.41106 -0.453984,-5.00347 2.731852,1.50143 3.756882,3.18484 3.073532,5.55198 -0.62641,2.27363 -3.018165,4.86826 -6.949051,7.96084 l -3.018172,-5.36874 c -1.708395,1.73018 -3.302897,3.00412 -5.011293,3.82055 -1.822288,0.81895 -3.472154,1.04645 -5.409918,0.86699 -0.113897,-2.0019 -0.398625,-3.50459 -1.081983,-4.68754 -0.626412,-1.18293 -1.65303,-2.04613 -2.848908,-2.41138 l -7.344517,8.46385 -5.183715,-5.55199 c -3.815415,1.54819 -7.287571,2.41139 -10.645832,2.59464 -3.359844,0.22496 -6.378009,-0.45878 -9.282281,-1.54945 z" /><path
     id="path896"
     style="fill-rule:evenodd;stroke:#000000;stroke-width:0.0509012;stroke-miterlimit:10"
     d="m 179.06307,206.12188 c -2.73186,0.1352 -5.57918,-0.0909 -7.91557,-0.50047 -2.39175,-0.50048 -4.8974,-1.27395 -6.88894,-2.3204 l -4.21405,3.59433 -3.98625,-6.27995 c -2.73502,1.32069 -4.6712,2.41138 -5.80855,3.45782 -1.2544,0.95546 -1.48377,1.73018 -1.14052,2.32039 -1.4806,-0.63697 -2.50563,-1.31818 -3.07353,-2.04614 -0.57104,-0.7722 -0.74188,-1.59241 -0.28472,-2.45561 -0.80041,0.18072 -1.42366,0.90869 -2.10703,1.68341 -0.74188,0.72544 -1.30976,2.0019 -1.93775,3.32008 -1.48062,-1.50143 -2.45028,-2.91312 -2.90428,-4.23129 -0.39862,-1.40916 -0.28474,-2.59464 0.3401,-3.73208 -2.0485,1.09321 -2.73185,2.41139 -2.27628,4.14155 0.51251,1.68343 2.16555,3.63856 5.18055,5.87048 l 2.22091,-3.95958 c 1.14052,1.27395 2.45028,2.27617 3.70153,2.82087 1.2544,0.54597 2.67806,0.81895 4.04478,0.63697 0,-1.36494 0.34326,-2.68563 0.79726,-3.45784 0.51251,-0.81895 1.1405,-1.59241 2.10701,-1.81863 l 5.46845,6.32417 3.87078,-4.14155 c 2.79038,1.18547 5.40991,1.77441 7.8602,1.95767 2.56101,0.13396 4.66803,-0.32102 6.9459,-1.1842 z" /><ellipse
     style="fill:#ffffff;stroke-width:0.113386"
     id="ellipse898"
     cx="80.488853"
     cy="86.388351"
     rx="20.152544"
     ry="14.849242" /><ellipse
     style="fill:#ffffff;stroke-width:0.113386"
     id="ellipse900"
     cx="139.53227"
     cy="85.681244"
     rx="20.152544"
     ry="14.849242" /><ellipse
     style="fill:#000000;stroke-width:0.109582"
     id="ellipse902"
     cx="84.832291"
     cy="87.801338"
     rx="7.0915947"
     ry="6.2438626" /><ellipse
     style="fill:#000000;stroke-width:0.109582"
     id="ellipse904"
     cx="135.09235"
     cy="87.447792"
     rx="7.0915947"
     ry="6.2438626" /></g><g
   id="g876"
   transform="matrix(2.2616048,0,0,2.2616048,239.78138,118.40133)"><path
     id="path848"
     style="fill:#2a7f00;fill-opacity:1;fill-rule:evenodd;stroke-width:1.41392"
     d="m 51.676888,206.75379 c 3.07353,-0.36525 5.351391,-0.72796 7.686197,-1.27393 2.10702,-0.54598 3.986255,-1.13746 5.409918,-1.77443 l 4.785088,4.0948 6.661161,-7.41739 c 2.9628,0.091 4.781924,0.68373 6.093276,1.77441 1.254405,1.09322 0.626411,3.73208 0.969672,4.59654 0.169258,0.72795 0.169258,0.72795 0,0 2.276279,0 4.100149,-0.27426 5.694651,-1.00221 1.535974,-0.7722 2.447118,-1.81866 3.189004,-3.32008 l 3.189011,5.09449 c 2.336385,-1.9109 3.929296,-3.59433 4.781914,-4.86826 0.85578,-1.36494 0.96968,-2.32038 0.34327,-3.04835 1.02503,1.22971 3.24753,2.27615 6.03632,3.32259 2.84575,0.99969 7.23221,2.59212 11.1631,2.81834 3.87078,0.0467 7.91556,-1.22717 11.50161,-2.04614 3.35827,-0.91122 6.14865,-1.68341 8.59893,-2.82085 0.11388,1.04644 0.45715,2.0019 1.2544,3.04834 0.68335,0.91122 1.64987,1.9109 2.90427,2.82087 l 2.84575,-3.32261 c 0.57104,1.09322 1.42366,2.0019 2.56418,2.54788 1.02186,0.50048 2.561,0.81896 4.1555,0.77473 -0.68335,-1.22971 -0.51252,-2.18517 0.28473,-3.04836 0.79726,-0.81895 2.39176,-1.50143 4.7851,-2.04866 l 4.15551,6.14346 4.78193,-4.59654 c 0.51252,0.63698 1.59767,1.22971 3.47531,1.77442 1.93461,0.54597 4.10015,1.04645 7.34769,1.50143 -4.90057,1.81864 -10.47975,3.0951 -17.19943,3.82307 -6.88894,0.63696 -16.34366,0.22749 -22.66472,0.54596 -6.09327,0.40949 -9.85331,1.54567 -14.35051,1.50143 -4.78193,-0.40948 -9.16681,-3.09257 -14.00726,-2.7741 -5.12519,0.36272 -10.250371,4.685 -15.601763,5.09449 -5.409917,0.0909 -11.047622,-2.41139 -15.604925,-3.09259 -4.668031,-0.59274 -7.744724,0.49921 -11.844872,-0.23002 -4.158678,-0.81642 -8.771344,-2.40884 -13.384012,-4.59273 z" /><path
     id="path850"
     style="fill:#9c6113;fill-opacity:1;fill-rule:evenodd;stroke-width:1.41392"
     d="m 108.10138,205.70481 c 0.96652,-4.45751 1.5945,-8.05436 1.25125,-11.46543 -0.28473,-3.32259 0,-4.13902 -2.90428,-8.41707 -3.015,-4.45751 -8.084813,-10.28375 -15.20313,-17.83384 l 25.28426,-7.37062 c 2.44711,4.64075 4.84203,9.23476 7.17366,13.78579 2.27944,4.54977 5.46845,8.27932 6.7197,13.46732 1.14051,5.13872 0.79725,10.73495 -0.39864,17.15012 -5.69465,3.23161 -10.24878,4.91502 -13.89336,5.05025 -3.81541,0.091 -6.20559,-1.36494 -8.02946,-4.36652 z" /><path
     style="fill:#6aa00f;fill-opacity:1;fill-rule:evenodd;stroke-width:1.41392"
     d="m 71.546253,37.181193 c -1.103258,3.677168 -3.374181,4.719985 -1.550868,14.413196 L 68.13231,51.021562 c -2.706123,-0.832033 -5.119524,-0.846271 -7.09669,-0.950334 -1.878081,0.172563 -3.054199,0.904381 -3.49737,2.27093 -0.911145,2.593371 0.858247,7.189575 5.301657,13.968734 -7.744726,0.454978 -12.818912,1.363327 -15.438452,2.910249 -2.561011,1.409161 -1.763933,3.775723 -0.454163,5.869872 1.025036,2.137128 3.41921,4.411303 6.951475,6.822695 -7.68936,0.04671 -12.302106,1.502134 -13.838081,4.551741 -1.539137,2.910587 -0.114371,7.417176 4.498379,13.331878 -5.296025,-0.271719 -8.428794,0.364893 -9.395304,1.910543 -0.969672,1.54819 1.364787,3.82119 3.244022,7.18801 1.766923,3.27583 3.928645,7.32616 6.948391,12.33217 -8.029457,-0.13781 -13.323853,0.40939 -15.886446,1.63655 -2.61954,1.3207 -2.050153,2.91119 0.398546,5.82051 2.393335,2.82087 7.059865,6.23581 14.233542,10.73759 -4.041619,4.27802 -5.863291,7.41755 -5.694033,9.41945 0.172422,1.86666 2.56351,2.13685 6.948391,2.59182 4.44341,0.45625 10.877748,0.7278 19.535199,0.63932 -4.383299,5.95893 -6.209573,9.91852 -6.095681,12.37414 0.169258,2.18515 2.447782,2.09273 7.288235,1.63901 4.781926,-0.45623 11.676359,-1.86618 21.126316,-4.23331 -4.383298,6.68943 -5.863338,11.28563 -4.439675,13.96872 1.30977,2.59466 8.483494,2.3694 12.982274,1.95993 4.440238,-0.50301 9.051478,-2.18702 13.834998,-4.87264 -0.20004,0.18184 -0.39163,0.33474 -0.59012,0.51096 1.0257,-0.64254 2.06929,-1.3169 3.15135,-2.06112 3.47215,3.77631 7.11764,6.27739 10.70528,7.68908 3.64615,1.27394 7.40363,1.18269 11.0482,0.58995 3.52752,-0.63696 8.82644,-2.00167 9.96379,-4.27527 0.91115,-2.50238 -0.22663,-5.87259 -3.87121,-10.28588 3.92931,0.72797 7.40372,1.45592 10.64968,2.0019 3.13047,0.59272 5.63548,1.54861 8.19964,1.45635 2.67492,-0.18325 6.03665,-0.22715 6.77537,-2.59428 0.39864,-2.50112 -0.73913,-6.36818 -3.87119,-11.96439 7.28758,0.36272 12.98188,0.18124 17.08519,-0.54799 4.10015,-0.72543 6.66398,-1.68111 7.46126,-3.72977 0.68334,-2.22939 -0.56857,-5.14152 -3.53137,-9.09855 5.98096,-4.0948 10.02254,-7.50785 12.12957,-10.23896 2.05165,-2.7741 2.44996,-4.68474 0.34294,-6.27716 -2.22091,-1.63918 -6.66489,-2.86639 -13.55384,-3.68534 3.13206,-4.82276 4.95523,-8.69102 6.09258,-11.96686 1.08515,-3.32006 1.08515,-6.14116 0,-7.41509 -1.25125,-1.320706 -3.7568,-1.776367 -7.51687,-0.8664 3.36143,-3.823082 4.95589,-6.96133 5.01126,-9.419463 -0.0553,-2.502375 -2.67486,-4.184844 -5.01126,-5.410758 -2.39175,-1.273934 -5.74998,-2.095074 -9.62393,-2.278337 4.6712,-2.683096 7.0041,-5.138808 7.46126,-7.3682 0.16925,-2.36462 -2.10646,-4.141434 -5.2955,-6.00811 -3.13201,-1.818645 -7.46087,-3.275343 -13.21089,-4.549278 3.58763,-3.503325 5.80919,-6.506643 6.43244,-8.827025 0.57106,-2.365881 0.96969,-3.638819 -2.50562,-5.413217 -3.643,-1.865408 -9.67983,-3.913815 -18.56508,-5.961212 2.39492,-2.820864 3.70528,-5.321202 3.92989,-7.141109 0.22937,-1.910906 -0.055,-3.686284 -2.84547,-4.277755 -3.0767,-0.682465 -7.8598,-0.590462 -14.97811,0.273994 1.76376,-4.094793 0.73914,-6.689152 -2.85164,-7.963086 -3.7569,-1.319434 -9.90897,-1.000004 -18.90493,0.592417 1.65303,-3.867307 2.45057,-7.097604 2.16267,-9.690974 -0.3401,-2.684366 -1.81844,-5.505165 -3.58695,-6.00564 -1.87924,-0.636967 -5.3514,1.546389 -7.11831,2.865823 -1.7084,1.228439 -2.845172,3.185354 -3.188423,4.823271 -0.512515,1.546923 -0.512515,3.002355 0,4.549279 -6.37643,-0.636969 -10.590029,-0.501995 -12.871054,0.589948 -2.217749,1.000951 -1.419928,3.366831 -0.682787,5.687216 0.512518,2.274885 1.819788,4.777241 3.926809,7.689095 -3.530683,-1.046448 -6.54763,-1.45496 -9.277899,-1.409464 -2.848907,0.04549 -5.011293,0.546014 -7.118313,1.683458 z"
     id="path852"
     sodipodi:nodetypes="ccscccccccccccccccccccccccccccccccccccccccccccccccccccccccccccccccccc" /><path
     id="path854"
     style="fill-rule:evenodd;stroke:#000000;stroke-width:0.0509012;stroke-miterlimit:10"
     d="m 109.58833,172.90854 c -6.6058,6.0057 -12.358981,8.91881 -17.879628,9.41929 -5.58234,0.27172 -12.871494,-4.50428 -14.635252,-7.14314 -1.82229,-2.59463 -0.398627,-5.68721 4.041619,-8.7798 -11.73098,2.9106 -19.247919,3.27583 -22.778602,1.27395 -3.587631,-2.18517 -2.959638,-6.50618 1.65303,-13.65059 -11.960349,0.54597 -19.477288,-0.31849 -23.177229,-2.59464 -3.58763,-2.27362 -3.132058,-5.95893 1.594503,-11.05341 -10.364264,-7.50838 -15.430923,-12.78611 -15.430923,-16.56242 0,-3.63856 5.068239,-5.59623 15.430923,-5.50397 -5.579176,-8.60034 -8.143351,-14.60602 -7.687779,-18.19909 0.455572,-3.685306 3.756888,-4.594008 10.13806,-3.275831 -4.327934,-5.68721 -5.808544,-9.965259 -4.443409,-12.64837 1.423663,-2.774095 5.468446,-4.139029 12.58676,-3.912802 -5.867073,-5.096999 -8.715979,-8.826553 -8.541977,-11.374428 0.169258,-2.547871 5.922437,-3.321333 9.339227,-3.912804 3.189005,-0.727963 6.661161,-0.77346 10.191844,-0.318483 -5.409918,-6.142192 -7.516939,-10.418977 -6.093276,-12.648366 1.558062,-3.092098 6.108783,-2.883186 14.236627,-1.000949 -6.247679,-1.475882 -9.950335,-0.46951 -10.593633,1.319434 -0.911144,2.593369 0.855779,7.188639 5.299189,13.967798 -7.744725,0.454977 -12.816128,1.364932 -15.435667,2.911855 -2.561012,1.40916 -1.76376,3.776308 -0.45399,5.870472 1.025036,2.137128 3.416791,4.410749 6.949056,6.822125 -7.689361,0.04671 -12.302029,1.502689 -13.838002,4.552296 -1.539138,2.910587 -0.113897,7.414864 4.498774,13.329566 -5.296024,-0.27172 -8.428082,0.365247 -9.394592,1.910917 -0.969673,1.54818 1.365135,3.82306 3.24437,7.1899 1.766923,3.27583 3.929308,7.32386 6.949054,12.32988 -8.029457,-0.13782 -13.325482,0.40947 -15.888075,1.63665 -2.619539,1.32069 -2.050073,2.91312 0.398625,5.82244 2.393335,2.82087 7.061368,6.23572 14.235045,10.73747 -4.041619,4.27805 -5.863907,7.41739 -5.694649,9.41929 0.17242,1.86666 2.564173,2.13713 6.949054,2.5921 4.44341,0.45624 10.875202,0.72796 19.532653,0.63949 -4.383299,5.95895 -6.207169,9.91851 -6.093276,12.37413 0.169258,2.18514 2.447118,2.09288 7.287571,1.63918 4.781924,-0.45625 11.675615,-1.86668 21.125572,-4.23382 -4.383299,6.68942 -5.863909,11.28596 -4.440246,13.96906 1.30977,2.59464 8.483449,2.36714 12.982228,1.95767 4.440241,-0.503 9.052901,-2.18641 13.836421,-4.87205 z"
     sodipodi:nodetypes="ccccccccscccccccccccccccccccccccccccccccc" /><path
     id="path856"
     style="fill-rule:evenodd;stroke:#000000;stroke-width:0.0509012;stroke-miterlimit:10"
     d="m 69.850654,50.729659 c -1.639996,-5.082902 -2.369638,-11.77048 1.528145,-15.3228 2.619538,-1.865406 7.232206,-1.865406 13.838,0 -4.781924,-6.55167 -6.207169,-10.919452 -4.498774,-13.285333 1.594503,-2.320384 6.550431,-2.820857 14.635251,-1.00095 2.505649,-6.597169 5.069824,-10.32798 8.143364,-11.6929124 2.90426,-1.3194338 8.36954,1.2739354 9.79321,3.9128034 1.36829,2.547872 0.74188,6.278685 -1.64987,11.374429 9.85017,-1.819908 16.34364,-2.047396 19.93128,-0.682466 3.41679,1.319434 3.75688,4.187054 0.79725,8.78106 11.04762,-1.546922 17.53952,-1.319434 19.93127,0.682465 2.22092,2.001901 0.34327,5.732712 -6.09326,11.374429 12.24349,1.18294 19.41717,3.457826 21.98133,6.824657 2.39177,3.366831 -0.0585,7.734613 -7.34766,13.285335 11.50161,2.273621 17.93814,4.777266 19.93126,7.507118 1.93777,2.683111 -0.91113,5.596226 -8.54196,8.735569 4.61266,-3.139343 5.63769,-6.052458 2.8489,-8.735569 -2.8489,-2.729852 -9.2807,-5.233497 -19.53265,-7.507118 7.34767,-4.59527 9.4547,-8.371581 6.94905,-11.692914 -2.84891,-3.321333 -10.08111,-5.960201 -22.7786,-8.098593 6.09327,-4.913753 7.97093,-8.053096 6.4919,-9.418028 -1.7084,-1.455927 -7.06295,-0.864457 -16.28828,1.273937 -1.19588,-5.459727 -3.41363,-8.917553 -7.28757,-10.37348 -3.92931,-1.546922 -8.88208,-0.955452 -15.48786,1.59242 1.99311,-9.008548 2.33322,-14.195288 1.25123,-15.9242 -1.14052,-1.592421 -7.00442,3.639816 -8.14334,5.869205 -1.251253,2.138393 -1.195887,4.413278 0.39861,6.824658 -7.686192,-1.091946 -12.697484,-1.319434 -15.033874,-0.318485 -2.391753,0.909955 -0.284732,3.321334 0.797252,5.823708 1.025036,2.411379 2.450281,5.277735 4.900563,8.78106 -7.575468,-2.092896 -12.930021,-2.456878 -16.686909,-1.273937 -5.518257,1.856678 -5.744324,8.321886 -4.777258,12.683932 z"
     sodipodi:nodetypes="cccccccccccccccccccccccccccccccc" /><path
     id="path858"
     style="fill-rule:evenodd;stroke:#000000;stroke-width:0.0509012;stroke-miterlimit:10"
     d="m 114.08077,173.62892 c 6.43496,5.87047 12.24349,8.91882 17.65342,9.32829 5.46845,0.22749 12.41433,-4.41327 14.466,-7.0989 1.82228,-2.68311 0.28472,-5.50396 -3.98627,-8.64457 11.55857,2.77663 18.90466,3.36684 22.49229,1.27394 3.36143,-2.13713 2.9628,-6.45941 -1.64986,-13.4648 11.73097,0.54597 19.3618,-0.36524 22.89407,-2.55039 3.47216,-2.36462 3.015,-5.77569 -1.59766,-10.91819 10.195,-7.37064 15.2063,-12.64837 15.26167,-16.38044 -0.0553,-3.68532 -5.06667,-5.50396 -15.26167,-5.45973 5.40991,-8.55357 8.02946,-14.37601 7.63082,-17.97034 -0.39861,-3.594323 -3.81541,-4.596522 -10.02258,-3.184832 5.0113,-5.917231 6.55044,-10.100503 4.38646,-12.559899 -2.16554,-2.547868 -7.91556,-3.229079 -17.25479,-2.229392 7.6862,0.04671 12.01572,1.548181 13.66558,4.504276 1.48377,2.913115 0,7.235392 -4.44023,13.148847 5.18054,-0.27426 8.20028,0.3627 9.28069,1.9109 0.85579,1.45592 -1.48061,3.82054 -3.24753,7.09637 -1.7084,3.23161 -3.98625,7.23541 -6.83041,12.19339 7.85703,-0.22749 13.15147,0.36272 15.65712,1.59242 2.50564,1.13745 1.93776,3.00412 -0.39863,5.77821 -2.50565,2.7741 -7.11831,6.14093 -14.0642,10.60223 3.92613,4.18454 5.80853,7.27964 5.63612,9.28154 -0.2262,1.95514 -2.50565,2.0019 -6.83041,2.59211 -4.50195,0.45623 -10.70912,0.72797 -19.24793,0.63697 4.21405,5.82496 6.20717,9.82876 5.9778,12.19338 -0.28474,2.2294 -2.61953,2.0019 -7.23221,1.59243 -4.84204,-0.54598 -11.50161,-1.7719 -20.84241,-4.18454 4.2694,6.64267 5.80853,11.19118 4.38329,13.83004 -1.53597,2.54789 -8.36954,2.36462 -12.81296,1.91092 -4.38013,-0.54219 -8.93745,-2.09037 -13.66558,-4.82024 z" /><path
     id="path860"
     style="fill-rule:evenodd;stroke:#000000;stroke-width:0.0509012;stroke-miterlimit:10"
     d="m 102.29601,180.36512 c 2.95964,4.82275 4.72655,9.32829 5.29602,13.33209 0.51252,4.0038 -0.16926,7.50585 -2.04848,10.6907 l 5.29601,2.63887 c 0.51252,-7.14062 0.16927,-12.82783 -1.2544,-17.24237 -1.53598,-4.46005 -3.75689,-7.59813 -7.28915,-9.41929 z" /><path
     id="path862"
     style="fill-rule:evenodd;stroke:#000000;stroke-width:0.0509012;stroke-miterlimit:10"
     d="m 124.67915,179.36669 c 3.01816,4.91249 4.55413,9.18928 5.2375,13.32957 0.39862,3.95956 -0.0553,7.59811 -1.99313,10.73745 l 5.29601,2.59464 c 0.51253,-7.14314 0.17243,-12.83035 -1.25123,-17.24489 -1.53913,-4.45752 -3.76164,-7.59813 -7.28915,-9.41677 z" /><path
     id="path864"
     style="fill-rule:evenodd;stroke:#000000;stroke-width:0.0509012;stroke-miterlimit:10"
     d="m 45.12804,206.03341 c 3.873945,0.18325 7.118313,-0.0467 10.593633,-0.68374 3.244369,-0.63697 6.431792,-1.68341 9.336063,-3.13681 l 5.637703,4.86826 5.409919,-8.46384 c 3.58763,1.82117 6.265698,3.36684 7.801671,4.6433 1.483774,1.31816 2.051657,2.3646 1.483774,3.13681 2.048491,-0.86446 3.358261,-1.72765 4.155513,-2.77409 0.797251,-1.04646 0.855779,-2.13713 0.398626,-3.27585 0.911143,0.36272 1.937762,1.04646 2.848907,2.22939 0.911143,1.22971 1.7084,2.50238 2.619533,4.50428 1.934603,-2.04866 3.302899,-3.95956 3.87078,-5.73399 0.567897,-1.9109 0.343267,-3.41106 -0.453984,-5.00347 2.731852,1.50143 3.756882,3.18484 3.073532,5.55198 -0.62641,2.27363 -3.018165,4.86826 -6.949051,7.96084 l -3.018172,-5.36874 c -1.708395,1.73018 -3.302897,3.00412 -5.011293,3.82055 -1.822288,0.81895 -3.472154,1.04645 -5.409918,0.86699 -0.113897,-2.0019 -0.398625,-3.50459 -1.081983,-4.68754 -0.626412,-1.18293 -1.65303,-2.04613 -2.848908,-2.41138 l -7.344517,8.46385 -5.183715,-5.55199 c -3.815415,1.54819 -7.287571,2.41139 -10.645832,2.59464 -3.359844,0.22496 -6.378009,-0.45878 -9.282281,-1.54945 z" /><path
     id="path866"
     style="fill-rule:evenodd;stroke:#000000;stroke-width:0.0509012;stroke-miterlimit:10"
     d="m 179.06307,206.12188 c -2.73186,0.1352 -5.57918,-0.0909 -7.91557,-0.50047 -2.39175,-0.50048 -4.8974,-1.27395 -6.88894,-2.3204 l -4.21405,3.59433 -3.98625,-6.27995 c -2.73502,1.32069 -4.6712,2.41138 -5.80855,3.45782 -1.2544,0.95546 -1.48377,1.73018 -1.14052,2.32039 -1.4806,-0.63697 -2.50563,-1.31818 -3.07353,-2.04614 -0.57104,-0.7722 -0.74188,-1.59241 -0.28472,-2.45561 -0.80041,0.18072 -1.42366,0.90869 -2.10703,1.68341 -0.74188,0.72544 -1.30976,2.0019 -1.93775,3.32008 -1.48062,-1.50143 -2.45028,-2.91312 -2.90428,-4.23129 -0.39862,-1.40916 -0.28474,-2.59464 0.3401,-3.73208 -2.0485,1.09321 -2.73185,2.41139 -2.27628,4.14155 0.51251,1.68343 2.16555,3.63856 5.18055,5.87048 l 2.22091,-3.95958 c 1.14052,1.27395 2.45028,2.27617 3.70153,2.82087 1.2544,0.54597 2.67806,0.81895 4.04478,0.63697 0,-1.36494 0.34326,-2.68563 0.79726,-3.45784 0.51251,-0.81895 1.1405,-1.59241 2.10701,-1.81863 l 5.46845,6.32417 3.87078,-4.14155 c 2.79038,1.18547 5.40991,1.77441 7.8602,1.95767 2.56101,0.13396 4.66803,-0.32102 6.9459,-1.1842 z" /><ellipse
     style="fill:#ffffff;stroke-width:0.113386"
     id="ellipse868"
     cx="80.488853"
     cy="86.388351"
     rx="20.152544"
     ry="14.849242" /><ellipse
     style="fill:#ffffff;stroke-width:0.113386"
     id="ellipse870"
     cx="139.53227"
     cy="85.681244"
     rx="20.152544"
     ry="14.849242" /><ellipse
     style="fill:#000000;stroke-width:0.109582"
     id="ellipse872"
     cx="84.832291"
     cy="87.801338"
     rx="7.0915947"
     ry="6.2438626" /><ellipse
     style="fill:#000000;stroke-width:0.109582"
     id="ellipse874"
     cx="135.09235"
     cy="87.447792"
     rx="7.0915947"
     ry="6.2438626" /></g></svg>
