<?xml version="1.0" encoding="UTF-8" standalone="no"?>
<svg
   xmlns:dc="http://purl.org/dc/elements/1.1/"
   xmlns:cc="http://creativecommons.org/ns#"
   xmlns:rdf="http://www.w3.org/1999/02/22-rdf-syntax-ns#"
   xmlns:svg="http://www.w3.org/2000/svg"
   xmlns="http://www.w3.org/2000/svg"
   xmlns:sodipodi="http://sodipodi.sourceforge.net/DTD/sodipodi-0.dtd"
   xmlns:inkscape="http://www.inkscape.org/namespaces/inkscape"
   id="svg2"
   xml:space="preserve"
   version="1.1"
   viewBox="0 0 1280 640.00002"
   inkscape:version="1.0.1 (3bc2e813f5, 2020-09-07)"
   sodipodi:docname="bosk-3trees-wide.svg"
   inkscape:export-filename="C:\Users\PatrickDoyle\Pictures\bosk-3trees-wide.png"
   inkscape:export-xdpi="96"
   inkscape:export-ydpi="96"
   width="1280"
   height="640"><defs
   id="defs991">
			
		
				
				
				
				
				
				
				
				
				
				
				
				
				
				
				
				
				
				
				
				
				
			<pattern
   id="EMFhbasepattern"
   patternUnits="userSpaceOnUse"
   width="6"
   height="6"
   x="0"
   y="0" /><filter
   inkscape:label="Opacity"
   style="color-interpolation-filters:sRGB"
   id="filter867"><feColorMatrix
     values="1 0 0 0 0 0 1 0 0 0 0 0 1 0 0 0 0 0 5 -1 "
     result="colormatrix"
     id="feColorMatrix863" /><feComposite
     in2="colormatrix"
     operator="arithmetic"
     k2="0.655689"
     result="composite"
     id="feComposite865"
     k1="0"
     k3="0"
     k4="0" /></filter></defs><sodipodi:namedview
   pagecolor="#ffffff"
   bordercolor="#666666"
   borderopacity="1"
   objecttolerance="10"
   gridtolerance="10"
   guidetolerance="10"
   inkscape:pageopacity="0"
   inkscape:pageshadow="2"
   inkscape:window-width="1920"
   inkscape:window-height="1001"
   id="namedview989"
   showgrid="false"
   inkscape:zoom="1.0375"
   inkscape:cx="640"
   inkscape:cy="336.08554"
   inkscape:window-x="-9"
   inkscape:window-y="-9"
   inkscape:window-maximized="1"
   inkscape:current-layer="svg2"
   inkscape:document-rotation="0" />
		
	<metadata
   id="metadata986"><rdf:RDF><cc:Work><dc:format>image/svg+xml</dc:format><dc:type
         rdf:resource="http://purl.org/dc/dcmitype/StillImage" /><cc:license
         rdf:resource="http://creativecommons.org/publicdomain/zero/1.0/" /><dc:publisher><cc:Agent
           rdf:about="http://openclipart.org/"><dc:title>Openclipart</dc:title></cc:Agent></dc:publisher><dc:title></dc:title><dc:date>2010-04-09T16:57:40</dc:date><dc:description>Small trees or bushes.</dc:description><dc:source>https://openclipart.org/detail/44023/small-trees-/-bushes-by-gerald_g</dc:source><dc:creator><cc:Agent><dc:title>Gerald_G</dc:title></cc:Agent></dc:creator><dc:subject><rdf:Bag><rdf:li>bush</rdf:li><rdf:li>nature</rdf:li><rdf:li>tree</rdf:li></rdf:Bag></dc:subject></cc:Work><cc:License
       rdf:about="http://creativecommons.org/publicdomain/zero/1.0/"><cc:permits
         rdf:resource="http://creativecommons.org/ns#Reproduction" /><cc:permits
         rdf:resource="http://creativecommons.org/ns#Distribution" /><cc:permits
         rdf:resource="http://creativecommons.org/ns#DerivativeWorks" /></cc:License></rdf:RDF></metadata><g
   id="g1971"
   transform="translate(4,-2)"><path
     id="path865"
     style="fill:#9c6113;fill-opacity:1;fill-rule:evenodd;stroke-width:3.14392"
     d="m 409.44918,391.92555 c 0.10638,-10.14126 -0.13864,-18.25633 -2.41559,-25.53132 -2.10983,-7.10854 -1.85578,-9.01428 -10.09906,-17.02919 -8.56488,-8.3561 -22.21858,-18.77183 -41.10658,-32.02343 l 51.76133,-27.3888 c 7.41025,9.00979 14.68587,17.9412 21.80438,26.80737 7.00429,8.88683 15.62175,15.57951 20.67292,26.31733 4.7879,10.68014 6.54946,23.02196 6.82127,37.52961 -10.95332,9.59131 -20.11689,15.29947 -27.99371,17.22808 -8.26869,1.90887 -14.127,-0.19033 -19.44496,-5.90965 z" /><path
     style="fill:#6aa00f;fill-opacity:1;fill-rule:evenodd;stroke-width:3.14392"
     d="m 254.27702,41.291559 c -0.75406,8.503083 -5.23229,11.792406 3.08472,32.085536 l -4.31438,-0.412216 c -6.26666,-0.598745 -11.52914,0.452323 -15.88182,1.112172 -4.01286,1.217881 -6.24618,3.339018 -6.59865,6.513896 -0.82159,6.056569 5.09269,15.273214 17.80941,28.045143 -16.66307,4.46332 -27.30676,8.71667 -32.31822,13.26018 -4.94576,4.21724 -2.14874,9.01394 1.64271,12.98749 3.19061,4.19482 9.42448,8.07424 18.1985,11.74223 -16.72554,3.54934 -26.11899,8.78725 -28.09683,16.1176 -2.04705,7.02899 3.0765,16.20499 15.77443,27.01831 -11.65593,1.78276 -18.19328,4.57384 -19.60521,8.37342 -1.41768,3.80653 4.68561,7.71017 10.28791,14.20011 5.3169,6.34214 11.84088,14.19403 20.66202,23.74258 -17.54897,3.29996 -28.83417,6.8655 -33.86497,10.68708 -5.11289,4.05082 -3.15972,7.25942 3.47767,12.49767 6.47717,5.07043 18.17143,10.41546 35.81325,17.00338 -6.88405,11.12912 -9.44379,18.7834 -8.17759,23.06741 1.21245,3.98805 6.54109,3.50441 16.29482,2.52927 9.88177,-0.9986 24.01673,-3.29211 42.83193,-7.36647 -6.87453,14.94312 -9.07661,24.38546 -7.72756,29.68244 1.34836,4.6831 6.26927,3.46022 16.60776,0.30179 10.2099,-3.13764 24.59296,-9.29954 44.11249,-18.69186 -6.54701,16.53407 -7.70959,27.20762 -3.40603,32.41275 4.01586,5.0636 19.53836,1.35659 29.15257,-1.55227 9.44476,-3.08632 18.73244,-8.8214 27.94623,-16.8151 -0.35413,0.48572 -0.70284,0.90462 -1.05611,1.3774 1.94576,-1.85926 3.91621,-3.79584 5.93913,-5.90181 9.25507,6.66756 18.31589,10.48011 26.76228,11.94604 8.51206,1.13969 16.65448,-0.74375 24.32615,-3.66875 7.39692,-2.96883 18.32544,-8.31683 19.78305,-13.7784 0.8624,-5.85841 -3.12662,-12.68818 -13.04282,-20.66569 8.88395,-0.17633 16.77718,-0.14873 24.09128,-0.41502 7.08354,-0.11271 12.96773,0.84595 18.51079,-0.50465 5.74349,-1.59843 13.04524,-3.20131 13.59276,-8.68784 -0.25322,-5.62587 -4.46499,-13.53773 -13.79536,-24.32129 16.03409,-2.47752 28.35422,-5.42586 36.96377,-8.8538 8.60437,-3.41825 13.75959,-6.64913 14.57743,-11.46833 0.48865,-5.16173 -3.54354,-10.94268 -11.77034,-18.2322 11.18985,-11.59961 18.46164,-20.84491 21.82597,-27.73765 3.22444,-6.96153 3.23525,-11.30126 -2.06756,-13.82465 -5.57182,-2.57416 -15.8005,-3.25437 -31.17098,-1.9492 4.65891,-11.90768 6.89517,-21.14972 7.90342,-28.79404 0.87473,-7.71723 -0.39014,-13.86124 -3.32464,-16.14916 -3.31723,-2.31533 -8.97831,-2.18431 -16.75929,1.48336 5.60666,-9.83334 7.67213,-17.38296 6.69058,-22.7613 -1.2424,-5.42507 -7.70184,-7.914776 -13.33989,-9.537115 -5.78012,-1.702104 -13.4621,-1.984745 -21.98126,-0.646939 8.9703,-7.937843 12.95003,-14.332068 12.94609,-19.392385 -0.6916,-5.22574 -6.44447,-8.075083 -14.22676,-10.710632 -7.63654,-2.556514 -17.7174,-3.78813 -30.81143,-3.984516 6.24267,-9.238371 9.73438,-16.775295 10.05137,-22.108245 0.18293,-5.408643 0.48036,-8.359677 -7.88401,-10.665904 -8.77039,-2.429249 -22.8363,-4.183747 -43.10526,-4.658922 3.95107,-7.217288 5.68382,-13.250235 5.35702,-17.3144776 -0.35724,-4.2645613 -1.77258,-8.0036177 -8.11507,-8.04062952 -7.00667,-0.10685108 -17.38243,2.23807932 -32.49765,7.31233702 2.0053,-9.7087629 -1.38941,-14.8995604 -9.78087,-16.0640651 -8.77365,-1.1891168 -22.02889,2.2649161 -40.90702,9.76645935 1.86615,-9.16367905 2.15475,-16.55645915 0.36497,-22.07541915 -1.94426,-5.693735 -6.42864,-11.17426 -10.50464,-11.471302 -4.37835,-0.544657 -10.96135,5.76721 -14.21788,9.432992 -3.16991,3.441371 -4.76825,8.212979 -4.78143,11.934063 -0.42262,3.5988023 0.22994,6.7685559 2.03972,9.9077759 -14.17268,1.47170632 -23.28887,3.6548798 -27.76708,7.055723 -4.3812,3.1743032 -1.58287,7.9691891 1.06291,12.6921991 2.13617,4.724629 6.10521,9.588326 11.9996,14.985282 -8.15858,-0.696013 -14.91228,-0.233019 -20.83808,1.090214 -6.18418,1.376412 -10.66917,3.436024 -14.74802,6.857945 z"
     id="path867"
     sodipodi:nodetypes="ccscccccccccccccccccccccccccccccccccccccccccccccccccccccccccccccccccc" /><path
     id="path870"
     style="fill-rule:evenodd;stroke:#000000;stroke-width:0.113181;stroke-miterlimit:10"
     d="m 397.98298,319.83258 c -11.6939,16.04147 -22.9175,24.96537 -34.7164,28.53061 -12.03583,3.09468 -30.0521,-4.03869 -35.07651,-8.99501 -5.13206,-4.83374 -3.41809,-12.20732 4.86563,-20.93344 -24.24365,11.59866 -40.45087,15.76439 -49.03783,12.98756 -8.79317,-3.15048 -9.36286,-12.84268 -2.52031,-30.47048 -25.80339,6.55162 -42.56196,8.03924 -51.64052,4.74098 -8.83282,-3.34311 -9.49299,-11.57353 -1.48329,-24.7879 -25.93857,-11.70539 -39.33947,-20.92795 -41.03263,-29.1523 -1.63139,-7.92434 8.52888,-14.46031 31.13891,-18.90561 -16.00683,-16.229 -24.28401,-28.15896 -24.90283,-36.18849 -0.66017,-8.23041 6.12227,-11.68964 20.61071,-11.67988 -11.97564,-10.44557 -17.11835,-19.09879 -15.34825,-25.55436 1.85676,-6.67995 10.05382,-11.46614 25.65808,-14.16502 -15.06307,-8.47008 -22.93983,-15.31525 -23.70325,-20.94223 -0.77374,-5.62484 11.40919,-9.88885 18.58535,-12.70896 6.61887,-3.01524 14.16041,-4.67111 22.0538,-5.26325 -14.53607,-10.951346 -21.04245,-19.320955 -18.94146,-24.814608 2.00689,-7.432789 12.01148,-9.018173 30.55686,-8.563104 -14.26842,-0.413071 -21.88113,3.438814 -22.48006,7.623346 -0.8216,6.056564 5.08689,15.272282 17.80361,28.044206 -16.66307,4.46333 -27.29998,8.71892 -32.31144,13.26243 -4.94576,4.21724 -2.1481,9.01514 1.64336,12.98873 3.19061,4.19481 9.41897,8.07411 18.19298,11.74206 -16.72555,3.54935 -26.11857,8.78844 -28.09641,16.11878 -2.04706,7.02899 3.07649,16.19974 15.77425,27.01309 -11.65592,1.78276 -18.19157,4.5743 -19.60349,8.37392 -1.41769,3.80651 4.68721,7.71409 10.28952,14.20408 5.3169,6.34214 11.84129,14.18872 20.66244,23.73728 -17.54898,3.29995 -28.83769,6.86642 -33.86848,10.68803 -5.11289,4.05081 -3.15868,7.2636 3.47871,12.50184 6.47716,5.07043 18.17466,10.41459 35.81647,17.00245 -6.88404,11.12918 -9.44521,18.78333 -8.17901,23.06733 1.21245,3.98805 6.54267,3.50473 16.2964,2.52959 9.88176,-0.99862 24.01125,-3.29062 42.82646,-7.36496 -6.87453,14.94317 -9.07138,24.38436 -7.72233,29.68134 1.34836,4.68308 6.26789,3.46084 16.60639,0.30246 10.20988,-3.13769 24.59112,-9.3003 44.11064,-18.69264 -6.54701,16.53405 -7.71069,27.2086 -3.40712,32.41375 4.01585,5.06356 19.53725,1.35169 29.15145,-1.55717 9.44478,-3.08631 18.73581,-8.82071 27.9496,-16.81445 z"
     sodipodi:nodetypes="ccccccccscccccccccccccccccccccccccccccccc" /><path
     id="path872"
     style="fill-rule:evenodd;stroke:#000000;stroke-width:0.113181;stroke-miterlimit:10"
     d="m 256.65883,71.55871 c -5.85069,-10.33463 -10.43822,-24.572217 -3.54205,-34.056354 4.86866,-5.237128 14.91449,-7.305271 30.13748,-6.20443 -13.35197,-12.124707 -18.41432,-20.998179 -15.75442,-26.9167587 2.43227,-5.7684279 13.00128,-9.0804456 31.42501,-8.7418338 2.49908,-15.4912675 6.41079,-24.7661975 12.4926,-29.1169115 5.73354,-4.175726 18.79902,-0.978106 23.08277,4.130708 4.12234,4.935466 4.43085,13.341581 1.50664,25.5118597 20.6365,-8.3799777 34.67649,-11.7868417 43.10191,-10.4227507 8.03294,1.341608 10.05934,7.4344519 5.67341,18.7666223 23.36679,-8.3223379 37.60735,-10.7376163 43.71387,-7.4500933 5.73447,3.36412101 3.31793,12.3312394 -8.17052,27.504106 27.19521,-2.913214 43.83859,-1.175193 50.93257,5.007684 6.71854,6.26017 3.3405,16.871274 -10.04567,32.228251 26.06851,-0.205212 41.20903,2.361528 46.77376,7.413174 5.42323,4.974667 0.5248,12.596415 -14.68665,22.854894 8.63825,-8.905247 9.56451,-15.709241 2.28786,-20.302343 -7.42852,-4.667948 -22.55874,-7.236809 -45.90564,-7.591896 13.94199,-13.302353 16.83769,-22.47141 9.89153,-28.581431 -7.69374,-5.956116 -24.62775,-8.460608 -53.24011,-7.424696 C 417.40044,14.732966 420.08219,7.0539886 416.24906,4.7444734 411.87559,2.3396229 400.47923,6.0285479 381.34635,14.821995 376.29394,3.467561 369.91359,-3.0688086 360.82384,-4.5027138 351.5727,-6.1099693 341.05137,-2.6011871 327.80715,5.9095468 328.10881,-14.603608 326.524,-26.052188 323.39237,-29.332425 c -3.19789,-2.956733 -13.62281,11.06759 -15.10367,16.433576 -1.7663,5.2181733 -0.62575,10.1477718 3.92804,14.6845523 -17.22918,1.068069 -28.24516,2.8194994 -32.88474,6.0469923 -4.80096,3.0541414 0.86904,7.3611234 4.34744,12.3258694 3.31357,4.792103 7.70275,10.395652 14.60992,16.926854 -17.43682,-1.161522 -29.26158,0.446546 -36.91324,4.707292 -11.18563,6.517794 -8.77922,20.699589 -4.71729,29.765999 z"
     sodipodi:nodetypes="cccccccccccccccccccccccccccccccc" /><path
     id="path874"
     style="fill-rule:evenodd;stroke:#000000;stroke-width:0.113181;stroke-miterlimit:10"
     d="m 408.08996,319.38724 c 16.64665,9.89998 30.66369,13.93459 42.62944,12.40076 12.01162,-1.9564 25.05816,-15.17767 28.32232,-21.94654 2.7657,-6.66053 -1.84768,-12.11461 -12.55751,-17.03953 26.41809,0.86474 42.68161,-1.14356 49.55665,-7.3102 6.36258,-6.16154 3.55647,-15.39621 -9.63029,-28.58496 25.79342,-4.07066 42.00388,-9.47653 48.717,-15.81926 6.50173,-6.70664 3.9767,-13.93056 -8.37481,-23.06216 18.89876,-20.6234 27.44642,-34.36453 25.8937,-42.51735 -1.7728,-8.00138 -13.50236,-9.71525 -35.686,-5.04788 7.94704,-21.05423 11.04154,-34.9093 8.56179,-42.55858 -2.47968,-7.64927 -10.37041,-8.29998 -23.25592,-2.44243 8.26094,-15.13389 9.73738,-24.93463 3.9218,-29.320653 -5.85865,-4.578001 -18.68692,-3.483507 -38.57841,2.881043 16.76055,-3.344469 26.86292,-2.015639 31.78152,3.68264 4.5376,5.67915 3.24407,15.7578 -3.77484,30.62742 11.15962,-2.92006 18.02183,-2.88678 21.06898,6e-4 2.51659,2.78711 -1.5116,8.98452 -3.89098,16.9111 -2.27176,7.80403 -5.43749,17.54512 -9.40875,29.61821 17.00966,-4.01824 28.80493,-5.10666 34.81328,-3.55196 5.96697,1.3538 5.56714,5.67379 1.72256,12.76297 -4.2132,7.16509 -12.74945,16.56578 -25.87648,29.39622 10.42682,7.35309 15.91418,13.24984 16.43627,17.68704 0.38397,4.35947 -4.55942,5.48333 -13.7136,8.70779 -9.60014,3.01212 -22.99676,6.38699 -41.63405,10.01728 11.78938,10.79664 17.9253,18.62279 18.48596,23.87548 0.37945,4.98303 -4.80744,5.53439 -15.03688,6.71077 -10.79017,0.9819 -25.84356,1.2979 -47.26842,0.23152 12.27655,12.55269 17.66797,21.7687 15.74713,28.15484 -2.20278,6.23766 -17.16763,8.90244 -27.04828,9.90659 -9.78249,0.78306 -20.40192,-0.54536 -31.92318,-4.37077 z" /><path
     id="path876"
     style="fill-rule:evenodd;stroke:#000000;stroke-width:0.113181;stroke-miterlimit:10"
     d="m 385.44444,339.3417 c 8.60807,9.17637 14.4763,18.19667 17.51169,26.66113 2.91135,8.49 2.9967,16.42272 0.33196,24.20151 l 12.71723,3.37261 c -2.08537,-15.7812 -5.38286,-28.01335 -10.46275,-36.98936 -5.34489,-9.02477 -11.58876,-14.86336 -20.09813,-17.24589 z" /><path
     id="path878"
     style="fill-rule:evenodd;stroke:#000000;stroke-width:0.113181;stroke-miterlimit:10"
     d="m 433.74454,327.1315 c 8.77575,9.34557 14.03846,17.97123 17.3831,26.68188 2.64346,8.44471 3.28627,16.57255 0.47347,24.2785 l 12.6974,3.27628 c -2.08648,-15.78668 -5.37711,-28.02025 -10.45697,-36.99626 -5.35062,-9.01785 -11.59911,-14.86123 -20.097,-17.2404 z" /><path
     id="path863"
     style="fill:#2a7f00;fill-opacity:1;fill-rule:evenodd;stroke-width:3.14392"
     d="m 284.06461,392.93535 c 6.83125,-0.83622 11.89332,-1.66056 17.08057,-2.89285 4.68075,-1.23051 8.85467,-2.56042 12.01525,-3.9879 l 10.6719,9.06746 14.75324,-16.54505 c 6.58861,0.17914 10.63814,1.48284 13.56253,3.89773 2.79778,2.42099 1.42209,8.29352 2.19212,10.21298 0.38205,1.61731 0.38205,1.61731 0,0 5.06139,-0.0178 9.11469,-0.64194 12.65441,-2.27306 3.40925,-1.72905 5.42702,-4.06304 7.06486,-7.40731 l 7.1308,11.3028 c 5.18007,-4.26726 8.70878,-8.02291 10.59462,-10.86223 1.89217,-3.0417 2.13795,-5.16705 0.7394,-6.78081 2.28883,2.72628 7.23883,5.03566 13.44801,7.34061 6.33547,2.20056 16.1014,5.70702 24.84366,6.17923 8.6072,0.0735 17.59093,-2.79069 25.55824,-4.63979 7.46009,-2.05245 13.65856,-3.7913 19.09794,-6.33964 0.26142,2.3259 1.03217,4.44772 2.81309,6.76827 1.52659,2.02078 3.68352,4.23603 6.47985,6.24956 l 6.30161,-7.41025 c 1.27829,2.42634 3.18124,4.44014 5.72151,5.64521 2.27606,1.10483 5.7009,1.80092 9.24598,1.69008 -1.52908,-2.72895 -1.15673,-4.85479 0.60922,-6.78037 1.76632,-1.82721 5.30641,-3.35722 10.6238,-4.59276 l 9.28807,13.62765 10.59679,-10.25805 c 1.1446,1.41234 3.56211,2.7218 7.74139,3.91827 4.30595,1.19882 9.12503,2.29469 16.34962,3.28091 -10.88234,4.0822 -23.27786,6.96418 -38.21362,8.63549 -15.31283,1.47028 -36.33896,0.63389 -50.39158,1.39155 -13.54541,0.95826 -21.8971,3.51406 -31.89714,3.45092 -10.63601,-0.87303 -20.40698,-6.80462 -31.16741,-6.05857 -11.39321,0.84668 -22.75538,10.49759 -34.65119,11.45003 -12.02845,0.24451 -24.5837,-5.27525 -34.72238,-6.75422 -10.38418,-1.2814 -17.21677,1.1707 -26.33932,-0.41865 -9.25337,-1.78279 -19.52229,-5.28742 -29.79584,-10.10725 z" /><path
     id="path880"
     style="fill-rule:evenodd;stroke:#000000;stroke-width:0.113181;stroke-miterlimit:10"
     d="m 269.49735,391.38488 c 8.6153,0.37711 15.82747,-0.15962 23.54999,-1.60332 7.20899,-1.44176 14.28815,-3.79353 20.73452,-7.04797 l 12.57378,10.78059 11.96284,-18.86206 c 7.9915,4.02133 13.9584,7.4372 17.3837,10.26343 3.30955,2.91935 4.58046,5.24169 3.3238,6.96319 4.54813,-1.93821 7.45368,-3.86781 9.21821,-6.20085 1.76451,-2.33309 1.8861,-4.7587 0.86069,-7.2871 2.0288,0.79937 4.31688,2.31165 6.35212,4.9348 2.03559,2.72717 3.81829,5.55075 5.85992,9.99492 4.28562,-4.57043 7.31309,-8.83011 8.5619,-12.78007 1.24777,-4.25341 0.73654,-7.58731 -1.04865,-11.12185 6.08614,3.31708 8.37852,7.05218 6.87761,12.32095 -1.37504,5.06042 -6.67286,10.84842 -15.3891,17.75568 l -6.75309,-11.91395 c -3.78512,3.86051 -7.32057,6.70565 -11.11286,8.5344 -4.04551,1.83524 -7.71227,2.35403 -12.02236,1.97017 -0.26894,-4.4504 -0.91382,-7.78946 -2.44256,-10.41444 -1.40212,-2.62538 -3.69161,-4.53669 -6.35355,-5.33947 l -16.2645,18.87724 -11.56969,-12.30445 c -8.47159,3.47235 -16.18529,5.41891 -23.65107,5.85269 -7.46898,0.52653 -14.18534,-0.97014 -20.65165,-3.37253 z" /><path
     id="path882"
     style="fill-rule:evenodd;stroke:#000000;stroke-width:0.113181;stroke-miterlimit:10"
     d="m 567.30765,390.53219 c -6.07334,0.32203 -12.40623,-0.1584 -17.6045,-1.05079 -5.32206,-1.09408 -10.89953,-2.7943 -15.336,-5.10552 l -9.34193,8.02515 -8.91278,-13.93248 c -6.07107,2.95803 -10.3677,5.39839 -12.88844,7.73411 -2.78172,2.13433 -3.28567,3.85874 -2.51781,5.16841 -3.29716,-1.40473 -5.58169,-2.9114 -6.85014,-4.52559 -1.27578,-1.71255 -1.66208,-3.53498 -0.65232,-5.45791 -1.77833,0.40811 -3.15845,2.03166 -4.67188,3.75963 -1.64391,1.61886 -2.89661,4.46157 -4.28265,7.39751 -3.30397,-3.32689 -5.47111,-6.45824 -6.49092,-9.38567 -0.89739,-3.13021 -0.65346,-5.76706 0.72698,-8.3011 -4.54635,2.44685 -6.05547,5.38322 -5.02895,9.22673 1.15278,3.73916 4.8437,8.07351 11.56515,13.01265 l 4.90725,-8.82168 c 2.54598,2.82374 5.46612,5.04196 8.2526,6.24331 2.79348,1.20416 5.96118,1.79999 8.99871,1.38463 -0.0107,-3.03499 0.74221,-5.97429 1.74564,-7.69488 1.13318,-1.82498 2.52347,-3.54972 4.67078,-4.0603 l 12.20885,14.01919 8.57438,-9.23922 c 6.21379,2.61407 12.04304,3.90307 17.49279,4.29136 5.69555,0.2778 10.37703,-0.75038 15.43519,-2.68754 z" /><ellipse
     style="fill:#ffffff;stroke-width:0.25212"
     id="ellipse884"
     cx="260.61218"
     cy="201.13103"
     rx="44.810223"
     ry="33.018055"
     transform="rotate(-11.633004)" /><ellipse
     style="fill:#ffffff;stroke-width:0.25212"
     id="ellipse886"
     cx="391.89828"
     cy="199.55873"
     rx="44.810223"
     ry="33.018055"
     transform="rotate(-11.633004)" /><ellipse
     style="fill:#000000;stroke-width:0.243661"
     id="ellipse888"
     cx="270.27005"
     cy="204.27287"
     rx="15.768527"
     ry="13.883551"
     transform="rotate(-11.633004)" /><ellipse
     style="fill:#000000;stroke-width:0.243661"
     id="ellipse890"
     cx="382.02588"
     cy="203.48674"
     rx="15.768527"
     ry="13.883551"
     transform="rotate(-11.633004)" /></g><g
   id="g922"
   transform="matrix(-2.2221847,-0.0779535,-0.0779535,2.2221847,1153.531,92.414817)"><path
     id="path894"
     style="fill:#2a7f00;fill-opacity:1;fill-rule:evenodd;stroke-width:1.41392"
     d="m 51.676888,206.75379 c 3.07353,-0.36525 5.351391,-0.72796 7.686197,-1.27393 2.10702,-0.54598 3.986255,-1.13746 5.409918,-1.77443 l 4.785088,4.0948 6.661161,-7.41739 c 2.9628,0.091 4.781924,0.68373 6.093276,1.77441 1.254405,1.09322 0.626411,3.73208 0.969672,4.59654 0.169258,0.72795 0.169258,0.72795 0,0 2.276279,0 4.100149,-0.27426 5.694651,-1.00221 1.535974,-0.7722 2.447118,-1.81866 3.189004,-3.32008 l 3.189011,5.09449 c 2.336385,-1.9109 3.929296,-3.59433 4.781914,-4.86826 0.85578,-1.36494 0.96968,-2.32038 0.34327,-3.04835 1.02503,1.22971 3.24753,2.27615 6.03632,3.32259 2.84575,0.99969 7.23221,2.59212 11.1631,2.81834 3.87078,0.0467 7.91556,-1.22717 11.50161,-2.04614 3.35827,-0.91122 6.14865,-1.68341 8.59893,-2.82085 0.11388,1.04644 0.45715,2.0019 1.2544,3.04834 0.68335,0.91122 1.64987,1.9109 2.90427,2.82087 l 2.84575,-3.32261 c 0.57104,1.09322 1.42366,2.0019 2.56418,2.54788 1.02186,0.50048 2.561,0.81896 4.1555,0.77473 -0.68335,-1.22971 -0.51252,-2.18517 0.28473,-3.04836 0.79726,-0.81895 2.39176,-1.50143 4.7851,-2.04866 l 4.15551,6.14346 4.78193,-4.59654 c 0.51252,0.63698 1.59767,1.22971 3.47531,1.77442 1.93461,0.54597 4.10015,1.04645 7.34769,1.50143 -4.90057,1.81864 -10.47975,3.0951 -17.19943,3.82307 -6.88894,0.63696 -16.34366,0.22749 -22.66472,0.54596 -6.09327,0.40949 -9.85331,1.54567 -14.35051,1.50143 -4.78193,-0.40948 -9.16681,-3.09257 -14.00726,-2.7741 -5.12519,0.36272 -10.250371,4.685 -15.601763,5.09449 -5.409917,0.0909 -11.047622,-2.41139 -15.604925,-3.09259 -4.668031,-0.59274 -7.744724,0.49921 -11.844872,-0.23002 -4.158678,-0.81642 -8.771344,-2.40884 -13.384012,-4.59273 z" /><path
     id="path896"
     style="fill:#9c6113;fill-opacity:1;fill-rule:evenodd;stroke-width:1.41392"
     d="m 108.10138,205.70481 c 0.96652,-4.45751 1.5945,-8.05436 1.25125,-11.46543 -0.28473,-3.32259 0,-4.13902 -2.90428,-8.41707 -3.015,-4.45751 -8.084813,-10.28375 -15.20313,-17.83384 l 25.28426,-7.37062 c 2.44711,4.64075 4.84203,9.23476 7.17366,13.78579 2.27944,4.54977 5.46845,8.27932 6.7197,13.46732 1.14051,5.13872 0.79725,10.73495 -0.39864,17.15012 -5.69465,3.23161 -10.24878,4.91502 -13.89336,5.05025 -3.81541,0.091 -6.20559,-1.36494 -8.02946,-4.36652 z" /><path
     style="fill:#6aa00f;fill-opacity:1;fill-rule:evenodd;stroke-width:1.41392"
     d="m 71.546253,37.181193 c -1.103258,3.677168 -3.374181,4.719985 -1.550868,14.413196 L 68.13231,51.021562 c -2.706123,-0.832033 -5.119524,-0.846271 -7.09669,-0.950334 -1.878081,0.172563 -3.054199,0.904381 -3.49737,2.27093 -0.911145,2.593371 0.858247,7.189575 5.301657,13.968734 -7.744726,0.454978 -12.818912,1.363327 -15.438452,2.910249 -2.561011,1.409161 -1.763933,3.775723 -0.454163,5.869872 1.025036,2.137128 3.41921,4.411303 6.951475,6.822695 -7.68936,0.04671 -12.302106,1.502134 -13.838081,4.551741 -1.539137,2.910587 -0.114371,7.417176 4.498379,13.331878 -5.296025,-0.271719 -8.428794,0.364893 -9.395304,1.910543 -0.969672,1.54819 1.364787,3.82119 3.244022,7.18801 1.766923,3.27583 3.928645,7.32616 6.948391,12.33217 -8.029457,-0.13781 -13.323853,0.40939 -15.886446,1.63655 -2.61954,1.3207 -2.050153,2.91119 0.398546,5.82051 2.393335,2.82087 7.059865,6.23581 14.233542,10.73759 -4.041619,4.27802 -5.863291,7.41755 -5.694033,9.41945 0.172422,1.86666 2.56351,2.13685 6.948391,2.59182 4.44341,0.45625 10.877748,0.7278 19.535199,0.63932 -4.383299,5.95893 -6.209573,9.91852 -6.095681,12.37414 0.169258,2.18515 2.447782,2.09273 7.288235,1.63901 4.781926,-0.45623 11.676359,-1.86618 21.126316,-4.23331 -4.383298,6.68943 -5.863338,11.28563 -4.439675,13.96872 1.30977,2.59466 8.483494,2.3694 12.982274,1.95993 4.440238,-0.50301 9.051478,-2.18702 13.834998,-4.87264 -0.20004,0.18184 -0.39163,0.33474 -0.59012,0.51096 1.0257,-0.64254 2.06929,-1.3169 3.15135,-2.06112 3.47215,3.77631 7.11764,6.27739 10.70528,7.68908 3.64615,1.27394 7.40363,1.18269 11.0482,0.58995 3.52752,-0.63696 8.82644,-2.00167 9.96379,-4.27527 0.91115,-2.50238 -0.22663,-5.87259 -3.87121,-10.28588 3.92931,0.72797 7.40372,1.45592 10.64968,2.0019 3.13047,0.59272 5.63548,1.54861 8.19964,1.45635 2.67492,-0.18325 6.03665,-0.22715 6.77537,-2.59428 0.39864,-2.50112 -0.73913,-6.36818 -3.87119,-11.96439 7.28758,0.36272 12.98188,0.18124 17.08519,-0.54799 4.10015,-0.72543 6.66398,-1.68111 7.46126,-3.72977 0.68334,-2.22939 -0.56857,-5.14152 -3.53137,-9.09855 5.98096,-4.0948 10.02254,-7.50785 12.12957,-10.23896 2.05165,-2.7741 2.44996,-4.68474 0.34294,-6.27716 -2.22091,-1.63918 -6.66489,-2.86639 -13.55384,-3.68534 3.13206,-4.82276 4.95523,-8.69102 6.09258,-11.96686 1.08515,-3.32006 1.08515,-6.14116 0,-7.41509 -1.25125,-1.320706 -3.7568,-1.776367 -7.51687,-0.8664 3.36143,-3.823082 4.95589,-6.96133 5.01126,-9.419463 -0.0553,-2.502375 -2.67486,-4.184844 -5.01126,-5.410758 -2.39175,-1.273934 -5.74998,-2.095074 -9.62393,-2.278337 4.6712,-2.683096 7.0041,-5.138808 7.46126,-7.3682 0.16925,-2.36462 -2.10646,-4.141434 -5.2955,-6.00811 -3.13201,-1.818645 -7.46087,-3.275343 -13.21089,-4.549278 3.58763,-3.503325 5.80919,-6.506643 6.43244,-8.827025 0.57106,-2.365881 0.96969,-3.638819 -2.50562,-5.413217 -3.643,-1.865408 -9.67983,-3.913815 -18.56508,-5.961212 2.39492,-2.820864 3.70528,-5.321202 3.92989,-7.141109 0.22937,-1.910906 -0.055,-3.686284 -2.84547,-4.277755 -3.0767,-0.682465 -7.8598,-0.590462 -14.97811,0.273994 1.76376,-4.094793 0.73914,-6.689152 -2.85164,-7.963086 -3.7569,-1.319434 -9.90897,-1.000004 -18.90493,0.592417 1.65303,-3.867307 2.45057,-7.097604 2.16267,-9.690974 -0.3401,-2.684366 -1.81844,-5.505165 -3.58695,-6.00564 -1.87924,-0.636967 -5.3514,1.546389 -7.11831,2.865823 -1.7084,1.228439 -2.845172,3.185354 -3.188423,4.823271 -0.512515,1.546923 -0.512515,3.002355 0,4.549279 -6.37643,-0.636969 -10.590029,-0.501995 -12.871054,0.589948 -2.217749,1.000951 -1.419928,3.366831 -0.682787,5.687216 0.512518,2.274885 1.819788,4.777241 3.926809,7.689095 -3.530683,-1.046448 -6.54763,-1.45496 -9.277899,-1.409464 -2.848907,0.04549 -5.011293,0.546014 -7.118313,1.683458 z"
     id="path898"
     sodipodi:nodetypes="ccscccccccccccccccccccccccccccccccccccccccccccccccccccccccccccccccccc" /><path
     id="path900"
     style="fill-rule:evenodd;stroke:#000000;stroke-width:0.0509012;stroke-miterlimit:10"
     d="m 109.58833,172.90854 c -6.6058,6.0057 -12.358981,8.91881 -17.879628,9.41929 -5.58234,0.27172 -12.871494,-4.50428 -14.635252,-7.14314 -1.82229,-2.59463 -0.398627,-5.68721 4.041619,-8.7798 -11.73098,2.9106 -19.247919,3.27583 -22.778602,1.27395 -3.587631,-2.18517 -2.959638,-6.50618 1.65303,-13.65059 -11.960349,0.54597 -19.477288,-0.31849 -23.177229,-2.59464 -3.58763,-2.27362 -3.132058,-5.95893 1.594503,-11.05341 -10.364264,-7.50838 -15.430923,-12.78611 -15.430923,-16.56242 0,-3.63856 5.068239,-5.59623 15.430923,-5.50397 -5.579176,-8.60034 -8.143351,-14.60602 -7.687779,-18.19909 0.455572,-3.685306 3.756888,-4.594008 10.13806,-3.275831 -4.327934,-5.68721 -5.808544,-9.965259 -4.443409,-12.64837 1.423663,-2.774095 5.468446,-4.139029 12.58676,-3.912802 -5.867073,-5.096999 -8.715979,-8.826553 -8.541977,-11.374428 0.169258,-2.547871 5.922437,-3.321333 9.339227,-3.912804 3.189005,-0.727963 6.661161,-0.77346 10.191844,-0.318483 -5.409918,-6.142192 -7.516939,-10.418977 -6.093276,-12.648366 1.558062,-3.092098 6.108783,-2.883186 14.236627,-1.000949 -6.247679,-1.475882 -9.950335,-0.46951 -10.593633,1.319434 -0.911144,2.593369 0.855779,7.188639 5.299189,13.967798 -7.744725,0.454977 -12.816128,1.364932 -15.435667,2.911855 -2.561012,1.40916 -1.76376,3.776308 -0.45399,5.870472 1.025036,2.137128 3.416791,4.410749 6.949056,6.822125 -7.689361,0.04671 -12.302029,1.502689 -13.838002,4.552296 -1.539138,2.910587 -0.113897,7.414864 4.498774,13.329566 -5.296024,-0.27172 -8.428082,0.365247 -9.394592,1.910917 -0.969673,1.54818 1.365135,3.82306 3.24437,7.1899 1.766923,3.27583 3.929308,7.32386 6.949054,12.32988 -8.029457,-0.13782 -13.325482,0.40947 -15.888075,1.63665 -2.619539,1.32069 -2.050073,2.91312 0.398625,5.82244 2.393335,2.82087 7.061368,6.23572 14.235045,10.73747 -4.041619,4.27805 -5.863907,7.41739 -5.694649,9.41929 0.17242,1.86666 2.564173,2.13713 6.949054,2.5921 4.44341,0.45624 10.875202,0.72796 19.532653,0.63949 -4.383299,5.95895 -6.207169,9.91851 -6.093276,12.37413 0.169258,2.18514 2.447118,2.09288 7.287571,1.63918 4.781924,-0.45625 11.675615,-1.86668 21.125572,-4.23382 -4.383299,6.68942 -5.863909,11.28596 -4.440246,13.96906 1.30977,2.59464 8.483449,2.36714 12.982228,1.95767 4.440241,-0.503 9.052901,-2.18641 13.836421,-4.87205 z"
     sodipodi:nodetypes="ccccccccscccccccccccccccccccccccccccccccc" /><path
     id="path902"
     style="fill-rule:evenodd;stroke:#000000;stroke-width:0.0509012;stroke-miterlimit:10"
     d="m 69.850654,50.729659 c -1.639996,-5.082902 -2.369638,-11.77048 1.528145,-15.3228 2.619538,-1.865406 7.232206,-1.865406 13.838,0 -4.781924,-6.55167 -6.207169,-10.919452 -4.498774,-13.285333 1.594503,-2.320384 6.550431,-2.820857 14.635251,-1.00095 2.505649,-6.597169 5.069824,-10.32798 8.143364,-11.6929124 2.90426,-1.3194338 8.36954,1.2739354 9.79321,3.9128034 1.36829,2.547872 0.74188,6.278685 -1.64987,11.374429 9.85017,-1.819908 16.34364,-2.047396 19.93128,-0.682466 3.41679,1.319434 3.75688,4.187054 0.79725,8.78106 11.04762,-1.546922 17.53952,-1.319434 19.93127,0.682465 2.22092,2.001901 0.34327,5.732712 -6.09326,11.374429 12.24349,1.18294 19.41717,3.457826 21.98133,6.824657 2.39177,3.366831 -0.0585,7.734613 -7.34766,13.285335 11.50161,2.273621 17.93814,4.777266 19.93126,7.507118 1.93777,2.683111 -0.91113,5.596226 -8.54196,8.735569 4.61266,-3.139343 5.63769,-6.052458 2.8489,-8.735569 -2.8489,-2.729852 -9.2807,-5.233497 -19.53265,-7.507118 7.34767,-4.59527 9.4547,-8.371581 6.94905,-11.692914 -2.84891,-3.321333 -10.08111,-5.960201 -22.7786,-8.098593 6.09327,-4.913753 7.97093,-8.053096 6.4919,-9.418028 -1.7084,-1.455927 -7.06295,-0.864457 -16.28828,1.273937 -1.19588,-5.459727 -3.41363,-8.917553 -7.28757,-10.37348 -3.92931,-1.546922 -8.88208,-0.955452 -15.48786,1.59242 1.99311,-9.008548 2.33322,-14.195288 1.25123,-15.9242 -1.14052,-1.592421 -7.00442,3.639816 -8.14334,5.869205 -1.251253,2.138393 -1.195887,4.413278 0.39861,6.824658 -7.686192,-1.091946 -12.697484,-1.319434 -15.033874,-0.318485 -2.391753,0.909955 -0.284732,3.321334 0.797252,5.823708 1.025036,2.411379 2.450281,5.277735 4.900563,8.78106 -7.575468,-2.092896 -12.930021,-2.456878 -16.686909,-1.273937 -5.518257,1.856678 -5.744324,8.321886 -4.777258,12.683932 z"
     sodipodi:nodetypes="cccccccccccccccccccccccccccccccc" /><path
     id="path904"
     style="fill-rule:evenodd;stroke:#000000;stroke-width:0.0509012;stroke-miterlimit:10"
     d="m 114.08077,173.62892 c 6.43496,5.87047 12.24349,8.91882 17.65342,9.32829 5.46845,0.22749 12.41433,-4.41327 14.466,-7.0989 1.82228,-2.68311 0.28472,-5.50396 -3.98627,-8.64457 11.55857,2.77663 18.90466,3.36684 22.49229,1.27394 3.36143,-2.13713 2.9628,-6.45941 -1.64986,-13.4648 11.73097,0.54597 19.3618,-0.36524 22.89407,-2.55039 3.47216,-2.36462 3.015,-5.77569 -1.59766,-10.91819 10.195,-7.37064 15.2063,-12.64837 15.26167,-16.38044 -0.0553,-3.68532 -5.06667,-5.50396 -15.26167,-5.45973 5.40991,-8.55357 8.02946,-14.37601 7.63082,-17.97034 -0.39861,-3.594323 -3.81541,-4.596522 -10.02258,-3.184832 5.0113,-5.917231 6.55044,-10.100503 4.38646,-12.559899 -2.16554,-2.547868 -7.91556,-3.229079 -17.25479,-2.229392 7.6862,0.04671 12.01572,1.548181 13.66558,4.504276 1.48377,2.913115 0,7.235392 -4.44023,13.148847 5.18054,-0.27426 8.20028,0.3627 9.28069,1.9109 0.85579,1.45592 -1.48061,3.82054 -3.24753,7.09637 -1.7084,3.23161 -3.98625,7.23541 -6.83041,12.19339 7.85703,-0.22749 13.15147,0.36272 15.65712,1.59242 2.50564,1.13745 1.93776,3.00412 -0.39863,5.77821 -2.50565,2.7741 -7.11831,6.14093 -14.0642,10.60223 3.92613,4.18454 5.80853,7.27964 5.63612,9.28154 -0.2262,1.95514 -2.50565,2.0019 -6.83041,2.59211 -4.50195,0.45623 -10.70912,0.72797 -19.24793,0.63697 4.21405,5.82496 6.20717,9.82876 5.9778,12.19338 -0.28474,2.2294 -2.61953,2.0019 -7.23221,1.59243 -4.84204,-0.54598 -11.50161,-1.7719 -20.84241,-4.18454 4.2694,6.64267 5.80853,11.19118 4.38329,13.83004 -1.53597,2.54789 -8.36954,2.36462 -12.81296,1.91092 -4.38013,-0.54219 -8.93745,-2.09037 -13.66558,-4.82024 z" /><path
     id="path906"
     style="fill-rule:evenodd;stroke:#000000;stroke-width:0.0509012;stroke-miterlimit:10"
     d="m 102.29601,180.36512 c 2.95964,4.82275 4.72655,9.32829 5.29602,13.33209 0.51252,4.0038 -0.16926,7.50585 -2.04848,10.6907 l 5.29601,2.63887 c 0.51252,-7.14062 0.16927,-12.82783 -1.2544,-17.24237 -1.53598,-4.46005 -3.75689,-7.59813 -7.28915,-9.41929 z" /><path
     id="path908"
     style="fill-rule:evenodd;stroke:#000000;stroke-width:0.0509012;stroke-miterlimit:10"
     d="m 124.67915,179.36669 c 3.01816,4.91249 4.55413,9.18928 5.2375,13.32957 0.39862,3.95956 -0.0553,7.59811 -1.99313,10.73745 l 5.29601,2.59464 c 0.51253,-7.14314 0.17243,-12.83035 -1.25123,-17.24489 -1.53913,-4.45752 -3.76164,-7.59813 -7.28915,-9.41677 z" /><path
     id="path910"
     style="fill-rule:evenodd;stroke:#000000;stroke-width:0.0509012;stroke-miterlimit:10"
     d="m 45.12804,206.03341 c 3.873945,0.18325 7.118313,-0.0467 10.593633,-0.68374 3.244369,-0.63697 6.431792,-1.68341 9.336063,-3.13681 l 5.637703,4.86826 5.409919,-8.46384 c 3.58763,1.82117 6.265698,3.36684 7.801671,4.6433 1.483774,1.31816 2.051657,2.3646 1.483774,3.13681 2.048491,-0.86446 3.358261,-1.72765 4.155513,-2.77409 0.797251,-1.04646 0.855779,-2.13713 0.398626,-3.27585 0.911143,0.36272 1.937762,1.04646 2.848907,2.22939 0.911143,1.22971 1.7084,2.50238 2.619533,4.50428 1.934603,-2.04866 3.302899,-3.95956 3.87078,-5.73399 0.567897,-1.9109 0.343267,-3.41106 -0.453984,-5.00347 2.731852,1.50143 3.756882,3.18484 3.073532,5.55198 -0.62641,2.27363 -3.018165,4.86826 -6.949051,7.96084 l -3.018172,-5.36874 c -1.708395,1.73018 -3.302897,3.00412 -5.011293,3.82055 -1.822288,0.81895 -3.472154,1.04645 -5.409918,0.86699 -0.113897,-2.0019 -0.398625,-3.50459 -1.081983,-4.68754 -0.626412,-1.18293 -1.65303,-2.04613 -2.848908,-2.41138 l -7.344517,8.46385 -5.183715,-5.55199 c -3.815415,1.54819 -7.287571,2.41139 -10.645832,2.59464 -3.359844,0.22496 -6.378009,-0.45878 -9.282281,-1.54945 z" /><path
     id="path912"
     style="fill-rule:evenodd;stroke:#000000;stroke-width:0.0509012;stroke-miterlimit:10"
     d="m 179.06307,206.12188 c -2.73186,0.1352 -5.57918,-0.0909 -7.91557,-0.50047 -2.39175,-0.50048 -4.8974,-1.27395 -6.88894,-2.3204 l -4.21405,3.59433 -3.98625,-6.27995 c -2.73502,1.32069 -4.6712,2.41138 -5.80855,3.45782 -1.2544,0.95546 -1.48377,1.73018 -1.14052,2.32039 -1.4806,-0.63697 -2.50563,-1.31818 -3.07353,-2.04614 -0.57104,-0.7722 -0.74188,-1.59241 -0.28472,-2.45561 -0.80041,0.18072 -1.42366,0.90869 -2.10703,1.68341 -0.74188,0.72544 -1.30976,2.0019 -1.93775,3.32008 -1.48062,-1.50143 -2.45028,-2.91312 -2.90428,-4.23129 -0.39862,-1.40916 -0.28474,-2.59464 0.3401,-3.73208 -2.0485,1.09321 -2.73185,2.41139 -2.27628,4.14155 0.51251,1.68343 2.16555,3.63856 5.18055,5.87048 l 2.22091,-3.95958 c 1.14052,1.27395 2.45028,2.27617 3.70153,2.82087 1.2544,0.54597 2.67806,0.81895 4.04478,0.63697 0,-1.36494 0.34326,-2.68563 0.79726,-3.45784 0.51251,-0.81895 1.1405,-1.59241 2.10701,-1.81863 l 5.46845,6.32417 3.87078,-4.14155 c 2.79038,1.18547 5.40991,1.77441 7.8602,1.95767 2.56101,0.13396 4.66803,-0.32102 6.9459,-1.1842 z" /><ellipse
     style="fill:#ffffff;stroke-width:0.113386"
     id="ellipse914"
     cx="80.488853"
     cy="86.388351"
     rx="20.152544"
     ry="14.849242" /><ellipse
     style="fill:#ffffff;stroke-width:0.113386"
     id="ellipse916"
     cx="139.53227"
     cy="85.681244"
     rx="20.152544"
     ry="14.849242" /><ellipse
     style="fill:#000000;stroke-width:0.109582"
     id="ellipse918"
     cx="84.832291"
     cy="87.801338"
     rx="7.0915947"
     ry="6.2438626" /><ellipse
     style="fill:#000000;stroke-width:0.109582"
     id="ellipse920"
     cx="135.09235"
     cy="87.447792"
     rx="7.0915947"
     ry="6.2438626" /></g><g
   id="g861"
   transform="matrix(2.2235515,0,0,2.2235515,352.49812,213.63837)"><path
     id="path9"
     style="fill:#2a7f00;fill-opacity:1;fill-rule:evenodd;stroke-width:1.41392"
     d="m 51.676888,206.75379 c 3.07353,-0.36525 5.351391,-0.72796 7.686197,-1.27393 2.10702,-0.54598 3.986255,-1.13746 5.409918,-1.77443 l 4.785088,4.0948 6.661161,-7.41739 c 2.9628,0.091 4.781924,0.68373 6.093276,1.77441 1.254405,1.09322 0.626411,3.73208 0.969672,4.59654 0.169258,0.72795 0.169258,0.72795 0,0 2.276279,0 4.100149,-0.27426 5.694651,-1.00221 1.535974,-0.7722 2.447118,-1.81866 3.189004,-3.32008 l 3.189011,5.09449 c 2.336385,-1.9109 3.929296,-3.59433 4.781914,-4.86826 0.85578,-1.36494 0.96968,-2.32038 0.34327,-3.04835 1.02503,1.22971 3.24753,2.27615 6.03632,3.32259 2.84575,0.99969 7.23221,2.59212 11.1631,2.81834 3.87078,0.0467 7.91556,-1.22717 11.50161,-2.04614 3.35827,-0.91122 6.14865,-1.68341 8.59893,-2.82085 0.11388,1.04644 0.45715,2.0019 1.2544,3.04834 0.68335,0.91122 1.64987,1.9109 2.90427,2.82087 l 2.84575,-3.32261 c 0.57104,1.09322 1.42366,2.0019 2.56418,2.54788 1.02186,0.50048 2.561,0.81896 4.1555,0.77473 -0.68335,-1.22971 -0.51252,-2.18517 0.28473,-3.04836 0.79726,-0.81895 2.39176,-1.50143 4.7851,-2.04866 l 4.15551,6.14346 4.78193,-4.59654 c 0.51252,0.63698 1.59767,1.22971 3.47531,1.77442 1.93461,0.54597 4.10015,1.04645 7.34769,1.50143 -4.90057,1.81864 -10.47975,3.0951 -17.19943,3.82307 -6.88894,0.63696 -16.34366,0.22749 -22.66472,0.54596 -6.09327,0.40949 -9.85331,1.54567 -14.35051,1.50143 -4.78193,-0.40948 -9.16681,-3.09257 -14.00726,-2.7741 -5.12519,0.36272 -10.250371,4.685 -15.601763,5.09449 -5.409917,0.0909 -11.047622,-2.41139 -15.604925,-3.09259 -4.668031,-0.59274 -7.744724,0.49921 -11.844872,-0.23002 -4.158678,-0.81642 -8.771344,-2.40884 -13.384012,-4.59273 z" /><path
     id="path15"
     style="fill:#9c6113;fill-opacity:1;fill-rule:evenodd;stroke-width:1.41392"
     d="m 108.10138,205.70481 c 0.96652,-4.45751 1.5945,-8.05436 1.25125,-11.46543 -0.28473,-3.32259 0,-4.13902 -2.90428,-8.41707 -3.015,-4.45751 -8.084813,-10.28375 -15.20313,-17.83384 l 25.28426,-7.37062 c 2.44711,4.64075 4.84203,9.23476 7.17366,13.78579 2.27944,4.54977 5.46845,8.27932 6.7197,13.46732 1.14051,5.13872 0.79725,10.73495 -0.39864,17.15012 -5.69465,3.23161 -10.24878,4.91502 -13.89336,5.05025 -3.81541,0.091 -6.20559,-1.36494 -8.02946,-4.36652 z" /><path
     style="fill:#6aa00f;fill-opacity:1;fill-rule:evenodd;stroke-width:1.41392"
     d="m 71.546253,37.181193 c -1.103258,3.677168 -3.374181,4.719985 -1.550868,14.413196 L 68.13231,51.021562 c -2.706123,-0.832033 -5.119524,-0.846271 -7.09669,-0.950334 -1.878081,0.172563 -3.054199,0.904381 -3.49737,2.27093 -0.911145,2.593371 0.858247,7.189575 5.301657,13.968734 -7.744726,0.454978 -12.818912,1.363327 -15.438452,2.910249 -2.561011,1.409161 -1.763933,3.775723 -0.454163,5.869872 1.025036,2.137128 3.41921,4.411303 6.951475,6.822695 -7.68936,0.04671 -12.302106,1.502134 -13.838081,4.551741 -1.539137,2.910587 -0.114371,7.417176 4.498379,13.331878 -5.296025,-0.271719 -8.428794,0.364893 -9.395304,1.910543 -0.969672,1.54819 1.364787,3.82119 3.244022,7.18801 1.766923,3.27583 3.928645,7.32616 6.948391,12.33217 -8.029457,-0.13781 -13.323853,0.40939 -15.886446,1.63655 -2.61954,1.3207 -2.050153,2.91119 0.398546,5.82051 2.393335,2.82087 7.059865,6.23581 14.233542,10.73759 -4.041619,4.27802 -5.863291,7.41755 -5.694033,9.41945 0.172422,1.86666 2.56351,2.13685 6.948391,2.59182 4.44341,0.45625 10.877748,0.7278 19.535199,0.63932 -4.383299,5.95893 -6.209573,9.91852 -6.095681,12.37414 0.169258,2.18515 2.447782,2.09273 7.288235,1.63901 4.781926,-0.45623 11.676359,-1.86618 21.126316,-4.23331 -4.383298,6.68943 -5.863338,11.28563 -4.439675,13.96872 1.30977,2.59466 8.483494,2.3694 12.982274,1.95993 4.440238,-0.50301 9.051478,-2.18702 13.834998,-4.87264 -0.20004,0.18184 -0.39163,0.33474 -0.59012,0.51096 1.0257,-0.64254 2.06929,-1.3169 3.15135,-2.06112 3.47215,3.77631 7.11764,6.27739 10.70528,7.68908 3.64615,1.27394 7.40363,1.18269 11.0482,0.58995 3.52752,-0.63696 8.82644,-2.00167 9.96379,-4.27527 0.91115,-2.50238 -0.22663,-5.87259 -3.87121,-10.28588 3.92931,0.72797 7.40372,1.45592 10.64968,2.0019 3.13047,0.59272 5.63548,1.54861 8.19964,1.45635 2.67492,-0.18325 6.03665,-0.22715 6.77537,-2.59428 0.39864,-2.50112 -0.73913,-6.36818 -3.87119,-11.96439 7.28758,0.36272 12.98188,0.18124 17.08519,-0.54799 4.10015,-0.72543 6.66398,-1.68111 7.46126,-3.72977 0.68334,-2.22939 -0.56857,-5.14152 -3.53137,-9.09855 5.98096,-4.0948 10.02254,-7.50785 12.12957,-10.23896 2.05165,-2.7741 2.44996,-4.68474 0.34294,-6.27716 -2.22091,-1.63918 -6.66489,-2.86639 -13.55384,-3.68534 3.13206,-4.82276 4.95523,-8.69102 6.09258,-11.96686 1.08515,-3.32006 1.08515,-6.14116 0,-7.41509 -1.25125,-1.320706 -3.7568,-1.776367 -7.51687,-0.8664 3.36143,-3.823082 4.95589,-6.96133 5.01126,-9.419463 -0.0553,-2.502375 -2.67486,-4.184844 -5.01126,-5.410758 -2.39175,-1.273934 -5.74998,-2.095074 -9.62393,-2.278337 4.6712,-2.683096 7.0041,-5.138808 7.46126,-7.3682 0.16925,-2.36462 -2.10646,-4.141434 -5.2955,-6.00811 -3.13201,-1.818645 -7.46087,-3.275343 -13.21089,-4.549278 3.58763,-3.503325 5.80919,-6.506643 6.43244,-8.827025 0.57106,-2.365881 0.96969,-3.638819 -2.50562,-5.413217 -3.643,-1.865408 -9.67983,-3.913815 -18.56508,-5.961212 2.39492,-2.820864 3.70528,-5.321202 3.92989,-7.141109 0.22937,-1.910906 -0.055,-3.686284 -2.84547,-4.277755 -3.0767,-0.682465 -7.8598,-0.590462 -14.97811,0.273994 1.76376,-4.094793 0.73914,-6.689152 -2.85164,-7.963086 -3.7569,-1.319434 -9.90897,-1.000004 -18.90493,0.592417 1.65303,-3.867307 2.45057,-7.097604 2.16267,-9.690974 -0.3401,-2.684366 -1.81844,-5.505165 -3.58695,-6.00564 -1.87924,-0.636967 -5.3514,1.546389 -7.11831,2.865823 -1.7084,1.228439 -2.845172,3.185354 -3.188423,4.823271 -0.512515,1.546923 -0.512515,3.002355 0,4.549279 -6.37643,-0.636969 -10.590029,-0.501995 -12.871054,0.589948 -2.217749,1.000951 -1.419928,3.366831 -0.682787,5.687216 0.512518,2.274885 1.819788,4.777241 3.926809,7.689095 -3.530683,-1.046448 -6.54763,-1.45496 -9.277899,-1.409464 -2.848907,0.04549 -5.011293,0.546014 -7.118313,1.683458 z"
     id="path1059"
     sodipodi:nodetypes="ccscccccccccccccccccccccccccccccccccccccccccccccccccccccccccccccccccc" /><path
     id="path19"
     style="fill-rule:evenodd;stroke:#000000;stroke-width:0.0509012;stroke-miterlimit:10"
     d="m 109.58833,172.90854 c -6.6058,6.0057 -12.358981,8.91881 -17.879628,9.41929 -5.58234,0.27172 -12.871494,-4.50428 -14.635252,-7.14314 -1.82229,-2.59463 -0.398627,-5.68721 4.041619,-8.7798 -11.73098,2.9106 -19.247919,3.27583 -22.778602,1.27395 -3.587631,-2.18517 -2.959638,-6.50618 1.65303,-13.65059 -11.960349,0.54597 -19.477288,-0.31849 -23.177229,-2.59464 -3.58763,-2.27362 -3.132058,-5.95893 1.594503,-11.05341 -10.364264,-7.50838 -15.430923,-12.78611 -15.430923,-16.56242 0,-3.63856 5.068239,-5.59623 15.430923,-5.50397 -5.579176,-8.60034 -8.143351,-14.60602 -7.687779,-18.19909 0.455572,-3.685306 3.756888,-4.594008 10.13806,-3.275831 -4.327934,-5.68721 -5.808544,-9.965259 -4.443409,-12.64837 1.423663,-2.774095 5.468446,-4.139029 12.58676,-3.912802 -5.867073,-5.096999 -8.715979,-8.826553 -8.541977,-11.374428 0.169258,-2.547871 5.922437,-3.321333 9.339227,-3.912804 3.189005,-0.727963 6.661161,-0.77346 10.191844,-0.318483 -5.409918,-6.142192 -7.516939,-10.418977 -6.093276,-12.648366 1.558062,-3.092098 6.108783,-2.883186 14.236627,-1.000949 -6.247679,-1.475882 -9.950335,-0.46951 -10.593633,1.319434 -0.911144,2.593369 0.855779,7.188639 5.299189,13.967798 -7.744725,0.454977 -12.816128,1.364932 -15.435667,2.911855 -2.561012,1.40916 -1.76376,3.776308 -0.45399,5.870472 1.025036,2.137128 3.416791,4.410749 6.949056,6.822125 -7.689361,0.04671 -12.302029,1.502689 -13.838002,4.552296 -1.539138,2.910587 -0.113897,7.414864 4.498774,13.329566 -5.296024,-0.27172 -8.428082,0.365247 -9.394592,1.910917 -0.969673,1.54818 1.365135,3.82306 3.24437,7.1899 1.766923,3.27583 3.929308,7.32386 6.949054,12.32988 -8.029457,-0.13782 -13.325482,0.40947 -15.888075,1.63665 -2.619539,1.32069 -2.050073,2.91312 0.398625,5.82244 2.393335,2.82087 7.061368,6.23572 14.235045,10.73747 -4.041619,4.27805 -5.863907,7.41739 -5.694649,9.41929 0.17242,1.86666 2.564173,2.13713 6.949054,2.5921 4.44341,0.45624 10.875202,0.72796 19.532653,0.63949 -4.383299,5.95895 -6.207169,9.91851 -6.093276,12.37413 0.169258,2.18514 2.447118,2.09288 7.287571,1.63918 4.781924,-0.45625 11.675615,-1.86668 21.125572,-4.23382 -4.383299,6.68942 -5.863909,11.28596 -4.440246,13.96906 1.30977,2.59464 8.483449,2.36714 12.982228,1.95767 4.440241,-0.503 9.052901,-2.18641 13.836421,-4.87205 z"
     sodipodi:nodetypes="ccccccccscccccccccccccccccccccccccccccccc" /><path
     id="path21"
     style="fill-rule:evenodd;stroke:#000000;stroke-width:0.0509012;stroke-miterlimit:10"
     d="m 69.850654,50.729659 c -1.639996,-5.082902 -2.369638,-11.77048 1.528145,-15.3228 2.619538,-1.865406 7.232206,-1.865406 13.838,0 -4.781924,-6.55167 -6.207169,-10.919452 -4.498774,-13.285333 1.594503,-2.320384 6.550431,-2.820857 14.635251,-1.00095 2.505649,-6.597169 5.069824,-10.32798 8.143364,-11.6929124 2.90426,-1.3194338 8.36954,1.2739354 9.79321,3.9128034 1.36829,2.547872 0.74188,6.278685 -1.64987,11.374429 9.85017,-1.819908 16.34364,-2.047396 19.93128,-0.682466 3.41679,1.319434 3.75688,4.187054 0.79725,8.78106 11.04762,-1.546922 17.53952,-1.319434 19.93127,0.682465 2.22092,2.001901 0.34327,5.732712 -6.09326,11.374429 12.24349,1.18294 19.41717,3.457826 21.98133,6.824657 2.39177,3.366831 -0.0585,7.734613 -7.34766,13.285335 11.50161,2.273621 17.93814,4.777266 19.93126,7.507118 1.93777,2.683111 -0.91113,5.596226 -8.54196,8.735569 4.61266,-3.139343 5.63769,-6.052458 2.8489,-8.735569 -2.8489,-2.729852 -9.2807,-5.233497 -19.53265,-7.507118 7.34767,-4.59527 9.4547,-8.371581 6.94905,-11.692914 -2.84891,-3.321333 -10.08111,-5.960201 -22.7786,-8.098593 6.09327,-4.913753 7.97093,-8.053096 6.4919,-9.418028 -1.7084,-1.455927 -7.06295,-0.864457 -16.28828,1.273937 -1.19588,-5.459727 -3.41363,-8.917553 -7.28757,-10.37348 -3.92931,-1.546922 -8.88208,-0.955452 -15.48786,1.59242 1.99311,-9.008548 2.33322,-14.195288 1.25123,-15.9242 -1.14052,-1.592421 -7.00442,3.639816 -8.14334,5.869205 -1.251253,2.138393 -1.195887,4.413278 0.39861,6.824658 -7.686192,-1.091946 -12.697484,-1.319434 -15.033874,-0.318485 -2.391753,0.909955 -0.284732,3.321334 0.797252,5.823708 1.025036,2.411379 2.450281,5.277735 4.900563,8.78106 -7.575468,-2.092896 -12.930021,-2.456878 -16.686909,-1.273937 -5.518257,1.856678 -5.744324,8.321886 -4.777258,12.683932 z"
     sodipodi:nodetypes="cccccccccccccccccccccccccccccccc" /><path
     id="path23"
     style="fill-rule:evenodd;stroke:#000000;stroke-width:0.0509012;stroke-miterlimit:10"
     d="m 114.08077,173.62892 c 6.43496,5.87047 12.24349,8.91882 17.65342,9.32829 5.46845,0.22749 12.41433,-4.41327 14.466,-7.0989 1.82228,-2.68311 0.28472,-5.50396 -3.98627,-8.64457 11.55857,2.77663 18.90466,3.36684 22.49229,1.27394 3.36143,-2.13713 2.9628,-6.45941 -1.64986,-13.4648 11.73097,0.54597 19.3618,-0.36524 22.89407,-2.55039 3.47216,-2.36462 3.015,-5.77569 -1.59766,-10.91819 10.195,-7.37064 15.2063,-12.64837 15.26167,-16.38044 -0.0553,-3.68532 -5.06667,-5.50396 -15.26167,-5.45973 5.40991,-8.55357 8.02946,-14.37601 7.63082,-17.97034 -0.39861,-3.594323 -3.81541,-4.596522 -10.02258,-3.184832 5.0113,-5.917231 6.55044,-10.100503 4.38646,-12.559899 -2.16554,-2.547868 -7.91556,-3.229079 -17.25479,-2.229392 7.6862,0.04671 12.01572,1.548181 13.66558,4.504276 1.48377,2.913115 0,7.235392 -4.44023,13.148847 5.18054,-0.27426 8.20028,0.3627 9.28069,1.9109 0.85579,1.45592 -1.48061,3.82054 -3.24753,7.09637 -1.7084,3.23161 -3.98625,7.23541 -6.83041,12.19339 7.85703,-0.22749 13.15147,0.36272 15.65712,1.59242 2.50564,1.13745 1.93776,3.00412 -0.39863,5.77821 -2.50565,2.7741 -7.11831,6.14093 -14.0642,10.60223 3.92613,4.18454 5.80853,7.27964 5.63612,9.28154 -0.2262,1.95514 -2.50565,2.0019 -6.83041,2.59211 -4.50195,0.45623 -10.70912,0.72797 -19.24793,0.63697 4.21405,5.82496 6.20717,9.82876 5.9778,12.19338 -0.28474,2.2294 -2.61953,2.0019 -7.23221,1.59243 -4.84204,-0.54598 -11.50161,-1.7719 -20.84241,-4.18454 4.2694,6.64267 5.80853,11.19118 4.38329,13.83004 -1.53597,2.54789 -8.36954,2.36462 -12.81296,1.91092 -4.38013,-0.54219 -8.93745,-2.09037 -13.66558,-4.82024 z" /><path
     id="path25"
     style="fill-rule:evenodd;stroke:#000000;stroke-width:0.0509012;stroke-miterlimit:10"
     d="m 102.29601,180.36512 c 2.95964,4.82275 4.72655,9.32829 5.29602,13.33209 0.51252,4.0038 -0.16926,7.50585 -2.04848,10.6907 l 5.29601,2.63887 c 0.51252,-7.14062 0.16927,-12.82783 -1.2544,-17.24237 -1.53598,-4.46005 -3.75689,-7.59813 -7.28915,-9.41929 z" /><path
     id="path27"
     style="fill-rule:evenodd;stroke:#000000;stroke-width:0.0509012;stroke-miterlimit:10"
     d="m 124.67915,179.36669 c 3.01816,4.91249 4.55413,9.18928 5.2375,13.32957 0.39862,3.95956 -0.0553,7.59811 -1.99313,10.73745 l 5.29601,2.59464 c 0.51253,-7.14314 0.17243,-12.83035 -1.25123,-17.24489 -1.53913,-4.45752 -3.76164,-7.59813 -7.28915,-9.41677 z" /><path
     id="path29"
     style="fill-rule:evenodd;stroke:#000000;stroke-width:0.0509012;stroke-miterlimit:10"
     d="m 45.12804,206.03341 c 3.873945,0.18325 7.118313,-0.0467 10.593633,-0.68374 3.244369,-0.63697 6.431792,-1.68341 9.336063,-3.13681 l 5.637703,4.86826 5.409919,-8.46384 c 3.58763,1.82117 6.265698,3.36684 7.801671,4.6433 1.483774,1.31816 2.051657,2.3646 1.483774,3.13681 2.048491,-0.86446 3.358261,-1.72765 4.155513,-2.77409 0.797251,-1.04646 0.855779,-2.13713 0.398626,-3.27585 0.911143,0.36272 1.937762,1.04646 2.848907,2.22939 0.911143,1.22971 1.7084,2.50238 2.619533,4.50428 1.934603,-2.04866 3.302899,-3.95956 3.87078,-5.73399 0.567897,-1.9109 0.343267,-3.41106 -0.453984,-5.00347 2.731852,1.50143 3.756882,3.18484 3.073532,5.55198 -0.62641,2.27363 -3.018165,4.86826 -6.949051,7.96084 l -3.018172,-5.36874 c -1.708395,1.73018 -3.302897,3.00412 -5.011293,3.82055 -1.822288,0.81895 -3.472154,1.04645 -5.409918,0.86699 -0.113897,-2.0019 -0.398625,-3.50459 -1.081983,-4.68754 -0.626412,-1.18293 -1.65303,-2.04613 -2.848908,-2.41138 l -7.344517,8.46385 -5.183715,-5.55199 c -3.815415,1.54819 -7.287571,2.41139 -10.645832,2.59464 -3.359844,0.22496 -6.378009,-0.45878 -9.282281,-1.54945 z" /><path
     id="path31"
     style="fill-rule:evenodd;stroke:#000000;stroke-width:0.0509012;stroke-miterlimit:10"
     d="m 179.06307,206.12188 c -2.73186,0.1352 -5.57918,-0.0909 -7.91557,-0.50047 -2.39175,-0.50048 -4.8974,-1.27395 -6.88894,-2.3204 l -4.21405,3.59433 -3.98625,-6.27995 c -2.73502,1.32069 -4.6712,2.41138 -5.80855,3.45782 -1.2544,0.95546 -1.48377,1.73018 -1.14052,2.32039 -1.4806,-0.63697 -2.50563,-1.31818 -3.07353,-2.04614 -0.57104,-0.7722 -0.74188,-1.59241 -0.28472,-2.45561 -0.80041,0.18072 -1.42366,0.90869 -2.10703,1.68341 -0.74188,0.72544 -1.30976,2.0019 -1.93775,3.32008 -1.48062,-1.50143 -2.45028,-2.91312 -2.90428,-4.23129 -0.39862,-1.40916 -0.28474,-2.59464 0.3401,-3.73208 -2.0485,1.09321 -2.73185,2.41139 -2.27628,4.14155 0.51251,1.68343 2.16555,3.63856 5.18055,5.87048 l 2.22091,-3.95958 c 1.14052,1.27395 2.45028,2.27617 3.70153,2.82087 1.2544,0.54597 2.67806,0.81895 4.04478,0.63697 0,-1.36494 0.34326,-2.68563 0.79726,-3.45784 0.51251,-0.81895 1.1405,-1.59241 2.10701,-1.81863 l 5.46845,6.32417 3.87078,-4.14155 c 2.79038,1.18547 5.40991,1.77441 7.8602,1.95767 2.56101,0.13396 4.66803,-0.32102 6.9459,-1.1842 z" /><ellipse
     style="fill:#ffffff;stroke-width:0.113386"
     id="ellipse871"
     cx="80.488853"
     cy="86.388351"
     rx="20.152544"
     ry="14.849242" /><ellipse
     style="fill:#ffffff;stroke-width:0.113386"
     id="path869"
     cx="139.53227"
     cy="85.681244"
     rx="20.152544"
     ry="14.849242" /><ellipse
     style="fill:#000000;stroke-width:0.109582"
     id="ellipse875"
     cx="84.832291"
     cy="87.801338"
     rx="7.0915947"
     ry="6.2438626" /><ellipse
     style="fill:#000000;stroke-width:0.109582"
     id="path873"
     cx="135.09235"
     cy="87.447792"
     rx="7.0915947"
     ry="6.2438626" /></g></svg>
